<svg width="101" height="101" viewBox="0 0 101 101" fill="none" xmlns="http://www.w3.org/2000/svg">
<g id="Group 20">
<path id="Vector" d="M30.1186 46.5157C29.6597 45.9167 28.9822 45.5238 28.2344 45.423C27.4865 45.3223 26.7292 45.5219 26.1282 45.9782C25.7746 46.257 25.4894 46.613 25.2943 47.0188L0.793641 96.034C0.446628 96.7286 0.38963 97.5326 0.635175 98.2692C0.88072 99.0058 1.40871 99.6148 2.1031 99.9623C2.50898 100.168 2.95771 100.274 3.41255 100.272H37.548C38.0948 100.286 38.6337 100.141 39.0989 99.853C39.564 99.5653 39.9352 99.1483 40.1669 98.6529C47.5344 83.4356 43.0684 60.2995 30.1186 46.5157Z" fill="url(#paint0_linear_13_6367)"/>
<path id="Vector_2" d="M48.1272 1.91128C42.0194 11.3101 38.4598 22.1352 37.7977 33.3247C37.1356 44.5141 39.3937 55.6835 44.3504 65.737L60.8083 98.6527C61.0514 99.1392 61.4252 99.5484 61.8877 99.8344C62.3503 100.12 62.8833 100.272 63.4272 100.272H97.5559C97.9408 100.273 98.322 100.198 98.6778 100.051C99.0336 99.9043 99.3569 99.6886 99.629 99.4164C99.9012 99.1442 100.117 98.821 100.264 98.4652C100.411 98.1094 100.486 97.7281 100.485 97.3432C100.485 96.8893 100.381 96.4414 100.182 96.0338L53.11 1.8975C52.8866 1.42579 52.5338 1.0272 52.0928 0.748089C51.6517 0.468974 51.1405 0.320801 50.6186 0.320801C50.0966 0.320801 49.5854 0.468974 49.1444 0.748089C48.7033 1.0272 48.3506 1.42579 48.1272 1.8975V1.91128Z" fill="#2684FF"/>
</g>
<defs>
<linearGradient id="paint0_linear_13_6367" x1="43.606" y1="54.0072" x2="17.7338" y2="98.8182" gradientUnits="userSpaceOnUse">
<stop stop-color="#0052CC"/>
<stop offset="0.92" stop-color="#2684FF"/>
</linearGradient>
</defs>
</svg>
