<svg width="101" height="61" viewBox="0 0 101 61" fill="none" xmlns="http://www.w3.org/2000/svg">
<g id="Group 54">
<path id="Vector" d="M28.5616 22.0062C28.5616 23.2368 28.6947 24.2346 28.9275 24.9663C29.1935 25.698 29.5261 26.4962 29.9918 27.3609C30.1581 27.627 30.2246 27.893 30.2246 28.1259C30.2246 28.4584 30.025 28.791 29.5926 29.1236L27.4973 30.5205C27.198 30.7201 26.8987 30.8198 26.6326 30.8198C26.3 30.8198 25.9674 30.6535 25.6348 30.3542C25.1692 29.8553 24.7701 29.3232 24.4375 28.791C24.1049 28.2256 23.7723 27.5937 23.4065 26.8288C20.8123 29.8886 17.5529 31.4185 13.6283 31.4185C10.8346 31.4185 8.60623 30.6203 6.97654 29.0238C5.34686 27.4274 4.51538 25.2988 4.51538 22.6381C4.51538 19.8111 5.51315 17.5162 7.54195 15.7868C9.57074 14.0573 12.2647 13.1926 15.6904 13.1926C16.8212 13.1926 17.9853 13.2923 19.2158 13.4586C20.4464 13.6249 21.7103 13.891 23.0406 14.1903V11.7624C23.0406 9.23475 22.5085 7.47203 21.4775 6.441C20.4132 5.40997 18.6172 4.91108 16.0562 4.91108C14.8922 4.91108 13.6949 5.04412 12.4643 5.34345C11.2337 5.64278 10.0364 6.00863 8.87231 6.47426C8.34016 6.70707 7.94106 6.84011 7.70824 6.90662C7.47543 6.97314 7.30913 7.0064 7.1761 7.0064C6.71047 7.0064 6.47766 6.67381 6.47766 5.97537V4.34568C6.47766 3.81354 6.54418 3.41443 6.71047 3.18162C6.87677 2.9488 7.1761 2.71599 7.64172 2.48318C8.80579 1.88452 10.2027 1.38563 11.8324 0.986525C13.462 0.554158 15.1915 0.354604 17.0208 0.354604C20.9786 0.354604 23.8721 1.2526 25.7346 3.04858C27.5639 4.84457 28.4951 7.5718 28.4951 11.2303V22.0062H28.5616ZM15.0585 27.0616C16.156 27.0616 17.2868 26.862 18.4841 26.4629C19.6815 26.0638 20.7458 25.3321 21.6438 24.3343C22.1759 23.7024 22.575 23.004 22.7746 22.2058C22.9741 21.4075 23.1071 20.443 23.1071 19.3122V17.9153C22.1426 17.6825 21.1116 17.483 20.0473 17.3499C18.983 17.2169 17.952 17.1504 16.921 17.1504C14.6926 17.1504 13.0629 17.5828 11.9654 18.4808C10.8678 19.3787 10.3357 20.6426 10.3357 22.3055C10.3357 23.8687 10.7348 25.0328 11.5663 25.831C12.3645 26.6625 13.5286 27.0616 15.0585 27.0616ZM41.7654 30.6535C41.1668 30.6535 40.7677 30.5538 40.5016 30.3209C40.2355 30.1214 40.0027 29.6558 39.8032 29.0238L31.9873 3.31465C31.7877 2.64947 31.688 2.21711 31.688 1.98429C31.688 1.45215 31.954 1.15282 32.4862 1.15282H35.7456C36.3775 1.15282 36.8098 1.2526 37.0427 1.48541C37.3087 1.68496 37.5083 2.15059 37.7078 2.78251L43.2953 24.8L48.4837 2.78251C48.65 2.11733 48.8496 1.68496 49.1157 1.48541C49.3817 1.28586 49.8474 1.15282 50.446 1.15282H53.1067C53.7387 1.15282 54.171 1.2526 54.4371 1.48541C54.7032 1.68496 54.936 2.15059 55.069 2.78251L60.3239 25.066L66.0777 2.78251C66.2773 2.11733 66.5101 1.68496 66.7429 1.48541C67.009 1.28586 67.4414 1.15282 68.04 1.15282H71.1331C71.6652 1.15282 71.9646 1.41889 71.9646 1.98429C71.9646 2.15059 71.9313 2.31688 71.8981 2.51644C71.8648 2.71599 71.7983 2.98206 71.6652 3.34791L63.6498 29.0571C63.4503 29.7223 63.2175 30.1547 62.9514 30.3542C62.6853 30.5538 62.253 30.6868 61.6876 30.6868H58.8273C58.1954 30.6868 57.763 30.587 57.4969 30.3542C57.2309 30.1214 56.998 29.689 56.865 29.0238L51.7099 7.5718L46.588 28.9906C46.4217 29.6558 46.2221 30.0881 45.9561 30.3209C45.69 30.5538 45.2244 30.6535 44.6257 30.6535H41.7654ZM84.5032 31.5515C82.7738 31.5515 81.0443 31.352 79.3813 30.9529C77.7184 30.5538 76.4213 30.1214 75.5565 29.6225C75.0244 29.3232 74.6586 28.9906 74.5255 28.6913C74.3925 28.3919 74.326 28.0593 74.326 27.76V26.0638C74.326 25.3654 74.592 25.0328 75.0909 25.0328C75.2905 25.0328 75.49 25.066 75.6896 25.1325C75.8891 25.1991 76.1885 25.3321 76.5211 25.4651C77.6519 25.964 78.8824 26.3631 80.1796 26.6292C81.5099 26.8953 82.807 27.0283 84.1374 27.0283C86.2327 27.0283 87.8624 26.6625 88.9932 25.9308C90.124 25.1991 90.7226 24.1348 90.7226 22.7712C90.7226 21.8399 90.4233 21.075 89.8247 20.443C89.226 19.8111 88.0952 19.2457 86.4655 18.7136L81.6429 17.2169C79.215 16.452 77.4191 15.3211 76.3215 13.8245C75.224 12.3611 74.6586 10.7314 74.6586 9.00194C74.6586 7.60506 74.9579 6.37448 75.5565 5.31019C76.1552 4.24591 76.9534 3.31465 77.9512 2.58296C78.949 1.818 80.0798 1.2526 81.4101 0.853489C82.7405 0.454381 84.1374 0.288086 85.6008 0.288086C86.3325 0.288086 87.0974 0.321345 87.8291 0.421122C88.5941 0.520899 89.2925 0.653935 89.9909 0.786971C90.6561 0.953266 91.288 1.11956 91.8867 1.31911C92.4854 1.51867 92.951 1.71822 93.2836 1.91778C93.7492 2.18385 94.0818 2.44992 94.2813 2.74925C94.4809 3.01532 94.5807 3.38117 94.5807 3.8468V5.40997C94.5807 6.10841 94.3146 6.47426 93.8157 6.47426C93.5497 6.47426 93.1173 6.34122 92.5519 6.07515C90.6561 5.21042 88.5275 4.77805 86.1662 4.77805C84.2704 4.77805 82.7738 5.07738 81.7427 5.7093C80.7117 6.34122 80.1796 7.30573 80.1796 8.66935C80.1796 9.6006 80.5121 10.3988 81.1773 11.0307C81.8425 11.6627 83.0731 12.2946 84.8358 12.86L89.5586 14.3566C91.9532 15.1216 93.6827 16.1859 94.7137 17.5495C95.7447 18.9131 96.2436 20.4763 96.2436 22.2058C96.2436 23.6359 95.9443 24.933 95.3789 26.0638C94.7802 27.1946 93.982 28.1924 92.951 28.9906C91.92 29.8221 90.6894 30.4207 89.2592 30.8531C87.7626 31.3187 86.1994 31.5515 84.5032 31.5515Z" fill="#252F3E"/>
<g id="Group">
<path id="Vector_2" fill-rule="evenodd" clip-rule="evenodd" d="M90.7891 47.7153C79.8469 55.7972 63.9491 60.0876 50.2797 60.0876C31.1225 60.0876 13.8611 53.0035 0.82363 41.2298C-0.207397 40.2985 0.723853 39.0347 1.95443 39.7664C16.0562 47.9481 33.4506 52.9037 51.4437 52.9037C63.5833 52.9037 76.9201 50.376 89.1926 45.1876C91.0219 44.3561 92.5851 46.3849 90.7891 47.7153Z" fill="#FF9900"/>
<path id="Vector_3" fill-rule="evenodd" clip-rule="evenodd" d="M95.3456 42.527C93.9487 40.731 86.0997 41.6623 82.541 42.0946C81.4767 42.2277 81.3104 41.2964 82.2749 40.598C88.5275 36.2078 98.8045 37.4716 100.002 38.935C101.199 40.4317 99.6692 50.7087 93.8157 55.631C92.9177 56.396 92.053 55.9969 92.4521 54.9991C93.7824 51.7065 96.7425 44.2897 95.3456 42.527Z" fill="#FF9900"/>
</g>
</g>
</svg>
