<svg width="89" height="100" viewBox="0 0 89 100" fill="none" xmlns="http://www.w3.org/2000/svg">
<path d="M88.192 0L80.159 89.9895L44.0506 100L8.04154 90.0036L0.0170898 0H88.192Z" fill="#264DE4"/>
<path d="M73.2819 84.2596L80.1466 7.35938H44.1045V92.3487L73.2819 84.2596Z" fill="#2965F1"/>
<path d="M18.413 40.7402L19.4023 51.7787H44.1045V40.7402H18.413Z" fill="#EBEBEB"/>
<path d="M44.1046 18.3975H44.0664H16.425L17.4285 29.4362H44.1046V18.3975Z" fill="#EBEBEB"/>
<path d="M44.1045 80.8931V69.4083L44.0561 69.4212L31.7624 66.1016L30.9765 57.2979H25.0027H19.8955L21.442 74.63L44.0537 80.9072L44.1045 80.8931Z" fill="#EBEBEB"/>
<path d="M57.6592 51.7783L56.3779 66.0945L44.0664 69.4174V80.9017L66.6961 74.6299L66.8621 72.7649L69.4561 43.704L69.7254 40.7398L71.7182 18.3975H44.0664V29.4362H59.6209L58.6165 40.7398H44.0664V51.7783H57.6592Z" fill="white"/>
</svg>
