<svg width="101" height="101" viewBox="0 0 101 101" fill="none" xmlns="http://www.w3.org/2000/svg">
<g id="Group 40">
<path id="Vector" d="M0.76123 0.296875H100.761V100.297H0.76123V0.296875Z" fill="#CF4547"/>
<path id="Vector_2" d="M35.3619 50.9626C35.3149 51.0311 35.2326 51.2446 35.1112 51.607C34.9897 51.9694 34.8428 52.4218 34.6705 52.9664C34.4981 53.5109 34.3101 54.122 34.1103 54.7958C33.9085 55.4696 33.7009 56.1591 33.4894 56.8603C33.2759 57.5634 33.0722 58.251 32.8763 58.9267C32.6804 59.6005 32.5041 60.2116 32.3494 60.7561C32.1947 61.3007 32.0654 61.757 31.9616 62.1272C31.8578 62.4955 31.7951 62.7129 31.7716 62.7815C31.7148 62.9989 31.6227 63.2418 31.4954 63.5081C31.3681 63.7745 31.2192 64.0252 31.0468 64.2642C30.8745 64.5032 30.6845 64.701 30.4769 64.8577C30.2692 65.0144 30.0557 65.0927 29.8383 65.0927C29.4701 65.0927 29.2017 64.9693 29.0353 64.7245C28.8688 64.4797 28.7845 64.0292 28.7845 63.3749V63.089C28.7845 62.993 28.7904 62.8911 28.8022 62.7834C28.8139 62.566 28.9001 62.1566 29.0607 61.5553C29.2213 60.9559 29.4152 60.2782 29.6385 59.5202C29.8618 58.7622 30.1047 57.9807 30.3633 57.1678C30.6218 56.3569 30.8549 55.6302 31.0625 54.9897C30.4514 55.6713 29.7913 56.349 29.0764 57.0248C28.3634 57.7006 27.6309 58.3058 26.8846 58.8444C26.1364 59.3831 25.3823 59.8238 24.6223 60.1627C23.8623 60.5035 23.1317 60.6739 22.4305 60.6739C21.6255 60.6739 20.9321 60.4956 20.3503 60.1431C19.7686 59.7885 19.2887 59.3243 18.9087 58.7524C18.5287 58.1804 18.2467 57.5321 18.0626 56.8093C17.8784 56.0866 17.7864 55.3638 17.7864 54.6411V54.3747C17.7864 54.2924 17.7923 54.2121 17.804 54.1298C17.8726 52.8214 18.0606 51.4777 18.3642 50.1008C18.6698 48.7238 19.0693 47.3527 19.5649 45.9914C20.0604 44.6281 20.6324 43.2962 21.2827 41.9937C21.933 40.6911 22.6401 39.461 23.4059 38.3034C24.1718 37.1458 24.9846 36.0783 25.8484 35.1029C26.7122 34.1275 27.5976 33.2891 28.5064 32.5879C29.4152 31.8867 30.3339 31.3383 31.2603 30.9426C32.1868 30.5469 33.1055 30.3491 34.0143 30.3491C35.0622 30.3491 36.0749 30.6351 37.0523 31.207C38.0297 31.779 38.9444 32.7074 39.7964 33.9884C39.9923 34.2744 40.1157 34.5643 40.1666 34.8581C40.2175 35.1519 40.245 35.4281 40.245 35.6866C40.245 36.2997 40.0981 36.7835 39.8043 37.138C39.5104 37.4925 39.1618 37.6688 38.7603 37.6688C38.392 37.6688 38.0492 37.4749 37.7339 37.0851C37.4166 36.6973 37.064 36.141 36.6723 35.4183C36.304 34.7641 35.8986 34.29 35.4559 33.9962C35.0132 33.7024 34.5314 33.5575 34.0143 33.5575C33.2093 33.5575 32.3474 33.8924 31.4327 34.5603C30.518 35.2283 29.6111 36.1116 28.714 37.2085C27.8169 38.3054 26.9551 39.559 26.1324 40.9712C25.3098 42.3815 24.5811 43.827 23.9485 45.3058C23.3158 46.7847 22.8124 48.2439 22.4383 49.6816C22.0642 51.1193 21.8781 52.412 21.8781 53.5579C21.8781 53.9398 21.9036 54.3316 21.9565 54.7331C22.0094 55.1346 22.1053 55.5009 22.2503 55.828C22.3933 56.1551 22.5891 56.4254 22.8379 56.635C23.0847 56.8466 23.3981 56.9523 23.7781 56.9523C24.2031 56.9523 24.6869 56.8093 25.2275 56.5234C25.7681 56.2374 26.3303 55.8633 26.9101 55.3991C27.4918 54.9349 28.0755 54.4099 28.6631 53.8243C29.2507 53.2386 29.7972 52.6451 30.3025 52.0458C30.8079 51.4464 31.2584 50.8705 31.6482 50.3182C32.0399 49.7658 32.3337 49.2859 32.5276 48.8766L34.1338 44.0718C34.3297 43.5547 34.5862 43.1865 34.9016 42.9671C35.2189 42.7497 35.5441 42.64 35.877 42.64C36.0376 42.64 36.1983 42.6675 36.3608 42.7223C36.5214 42.7771 36.6664 42.8614 36.7917 42.9789C36.9191 43.0945 37.019 43.2453 37.0934 43.4294C37.1678 43.6135 37.205 43.829 37.205 44.0738C37.205 44.728 37.1482 45.3411 37.0327 45.915C36.9171 46.4889 36.7702 47.0471 36.592 47.5917C36.4137 48.1362 36.2159 48.6866 35.9965 49.237C35.7811 49.7854 35.5676 50.3613 35.3619 50.9626ZM57.131 54.9701C56.6237 55.6517 56.0341 56.3158 55.3623 56.9641C54.6885 57.6124 53.9951 58.1883 53.2821 58.6917C52.5692 59.1951 51.866 59.6005 51.1765 59.908C50.4851 60.2155 49.8642 60.3683 49.3118 60.3683C48.7595 60.3683 48.3109 60.1842 47.9642 59.816C47.6195 59.4477 47.4471 58.8209 47.4471 57.9336C47.4471 57.3069 47.5392 56.5763 47.7233 55.7458C47.4236 56.2785 47.0495 56.8172 46.601 57.3617C46.1524 57.9062 45.6392 58.4037 45.0634 58.8542C44.4875 59.3047 43.8431 59.6691 43.1301 59.9472C42.4172 60.2273 41.6396 60.3664 40.7993 60.3664C40.4193 60.3664 40.053 60.3194 39.7024 60.2234C39.3518 60.1274 39.0443 59.9648 38.7798 59.7337C38.5154 59.5026 38.3019 59.1931 38.1413 58.8033C37.9807 58.4155 37.9004 57.9278 37.9004 57.3421C37.9004 57.3284 37.9239 57.1208 37.9689 56.7192C38.014 56.3177 38.1609 55.6831 38.4096 54.8173C38.6564 53.9516 39.0403 52.8312 39.5575 51.4542C40.0765 50.0773 40.8071 48.4084 41.7493 46.4438C41.9902 45.9267 42.2703 45.5546 42.5856 45.3293C42.9029 45.1041 43.2437 44.9924 43.612 44.9924C43.7726 44.9924 43.9391 45.0159 44.1134 45.063C44.2858 45.1119 44.4464 45.1864 44.5972 45.2882C44.7461 45.3901 44.8675 45.5193 44.9596 45.676C45.0516 45.8327 45.0986 46.0129 45.0986 46.2186C45.0986 46.3557 45.081 46.485 45.0458 46.6064C44.989 46.8395 44.8656 47.1411 44.6736 47.5172C44.4836 47.8933 44.2623 48.3223 44.0096 48.8061C43.7569 49.2899 43.4886 49.8109 43.2065 50.3711C42.9245 50.9293 42.662 51.5091 42.4211 52.1084C42.1802 52.7078 41.9725 53.3189 41.8002 53.9379C41.6278 54.5588 41.5299 55.1621 41.5064 55.7477C41.5064 55.9926 41.5632 56.2178 41.6787 56.4235C41.7943 56.6272 41.9843 56.731 42.2487 56.731C42.997 56.731 43.7099 56.4862 44.3896 55.9945C45.0693 55.5048 45.6961 54.8937 46.2719 54.1651C46.8478 53.4364 47.3688 52.653 47.835 51.8127C48.3011 50.9743 48.6909 50.2085 49.0004 49.5131C49.2198 49.0489 49.4117 48.5514 49.5782 48.0206C49.7447 47.4898 49.9269 46.9982 50.1227 46.5477C50.3186 46.0972 50.5419 45.723 50.7965 45.4234C51.0492 45.1237 51.3665 44.9729 51.7465 44.9729C52.1598 44.9729 52.4889 45.1296 52.7298 45.4429C52.9707 45.7563 53.0921 46.1324 53.0921 46.5672C53.0921 46.8121 53.0158 47.1509 52.8591 47.5799C52.7024 48.0089 52.5084 48.5005 52.2714 49.0528C52.0364 49.6052 51.7798 50.1948 51.5036 50.8216C51.2275 51.4484 50.9709 52.0869 50.7358 52.7333C50.4988 53.3816 50.3049 54.0143 50.1482 54.6352C49.9935 55.2561 49.9151 55.8319 49.9151 56.3628C49.9151 56.8544 50.1678 57.0992 50.6751 57.0992C51.0316 57.0992 51.4742 56.9758 52.0051 56.731C52.5359 56.4862 53.0902 56.1414 53.6719 55.6988C54.2537 55.2561 54.8334 54.7351 55.4152 54.1337C55.9969 53.5344 56.5121 52.886 56.9606 52.1907L57.131 54.9701Z" fill="white" stroke="white" stroke-width="0.264085" stroke-miterlimit="10"/>
<path id="Vector_3" d="M57.6677 53.948C57.5404 54.2614 57.417 54.6257 57.2955 55.0429C57.1741 55.4581 57.1153 55.8303 57.1153 56.1574C57.1153 56.3611 57.1506 56.5256 57.2191 56.649C57.2877 56.7724 57.4209 56.8332 57.6167 56.8332C57.8577 56.8332 58.1593 56.7489 58.5236 56.5766C58.886 56.4062 59.2777 56.1809 59.6969 55.9008C60.118 55.6227 60.5548 55.3015 61.0092 54.9391C61.4636 54.5787 61.9161 54.2026 62.3647 53.8148C62.8132 53.425 63.2422 53.0372 63.6515 52.6494C64.0609 52.2596 64.4252 51.9031 64.7484 51.576C64.8405 51.48 64.9501 51.4115 65.0755 51.3723C65.2009 51.3311 65.3106 51.3116 65.4026 51.3116C65.6318 51.3116 65.8237 51.4075 65.9726 51.5975C66.1215 51.7875 66.1959 52.0402 66.1959 52.3536C66.1959 52.6396 66.1156 52.9608 65.955 53.3153C65.7944 53.6698 65.5123 54.0185 65.1088 54.3574C64.3723 55.1624 63.63 55.9243 62.8818 56.6471C62.1335 57.3698 61.3892 58.0064 60.6469 58.5588C59.9045 59.1111 59.168 59.5499 58.4374 59.879C57.7068 60.2061 56.9958 60.3686 56.3044 60.3686C55.8324 60.3686 55.4387 60.2942 55.1213 60.1434C54.804 59.9926 54.5514 59.7889 54.3614 59.5303C54.1714 59.2718 54.0362 58.9642 53.9559 58.6097C53.8756 58.2552 53.8345 57.8811 53.8345 57.4854C53.8345 56.8175 53.9187 56.1319 54.0852 55.4307C54.2517 54.7295 54.4495 54.0851 54.6806 53.4994C55.0841 52.4359 55.4915 51.3801 55.9068 50.3302C56.3201 49.2804 56.7001 48.3186 57.0468 47.447L62.2765 34.2571C62.4841 33.7263 62.7623 33.3502 63.1148 33.1328C63.4654 32.9154 63.82 32.8057 64.1765 32.8057C64.5329 32.8057 64.8581 32.9212 65.1519 33.1524C65.4457 33.3835 65.5926 33.7596 65.5926 34.2767C65.5926 34.5215 65.5436 34.782 65.4457 35.0543C65.3478 35.3265 65.2244 35.6203 65.0755 35.9337C64.7876 36.5742 64.4448 37.3577 64.0491 38.2842C63.6515 39.2106 63.2265 40.2194 62.7721 41.3104C62.3176 42.4014 61.8515 43.5355 61.3735 44.7146C60.8956 45.8938 60.4294 47.0416 59.975 48.16C59.5206 49.2784 59.0956 50.3381 58.6979 51.339C58.2964 52.3418 57.9536 53.2115 57.6677 53.948Z" fill="white" stroke="white" stroke-width="0.264085" stroke-miterlimit="10"/>
<path id="Vector_4" d="M82.1299 50.246C82.2905 50.1363 82.4413 50.0481 82.5784 49.9796C82.7156 49.911 82.8487 49.8777 82.9761 49.8777C83.2287 49.8777 83.4187 49.9913 83.546 50.2146C83.6734 50.4399 83.736 50.716 83.736 51.0431C83.736 51.3977 83.6596 51.7581 83.503 52.1263C83.3482 52.4946 83.1151 52.8001 82.8037 53.0469C81.5717 54.1379 80.4728 55.1329 79.5072 56.032C78.5396 56.931 77.6288 57.7047 76.7709 58.3531C75.913 59.0014 75.0766 59.5009 74.2598 59.8554C73.443 60.2099 72.5675 60.3862 71.6351 60.3862C70.7596 60.3862 70.0838 60.1942 69.6059 59.8143C69.128 59.4323 68.889 58.9074 68.889 58.2394V58.0867C68.889 58.0397 68.8949 57.9809 68.9067 57.9123C68.9517 57.503 69.1319 57.0329 69.4414 56.5021C69.7528 55.9713 70.1269 55.4189 70.5637 54.845C71.0005 54.2711 71.4667 53.6933 71.9622 53.1076C72.4578 52.522 72.9142 51.9657 73.3353 51.4408C73.7545 50.9158 74.1031 50.4359 74.3793 49.9992C74.6555 49.5624 74.7945 49.2098 74.7945 48.9356C74.7945 48.771 74.7358 48.6418 74.6222 48.5477C74.5066 48.4518 74.3166 48.4048 74.0522 48.4048C73.5919 48.4048 73.1179 48.5242 72.6282 48.7632C72.1385 49.0022 71.6547 49.3214 71.1788 49.723C70.7008 50.1245 70.2347 50.5848 69.7802 51.1039C69.3258 51.6229 68.9008 52.1596 68.5032 52.7198C68.1055 53.28 67.7432 53.8402 67.4161 54.4063C67.089 54.9723 66.8089 55.4933 66.5797 55.9713C66.5111 56.1221 66.4132 56.3336 66.2859 56.6059C66.1586 56.8781 66.0215 57.1857 65.8726 57.5265C65.7218 57.8673 65.5651 58.2179 65.3966 58.5783C65.2301 58.9407 65.0774 59.2815 64.9403 59.6008C64.8012 59.922 64.6778 60.206 64.5681 60.4606C64.4584 60.7133 64.3801 60.8857 64.335 60.9816C64.2763 61.105 64.1822 61.3362 64.049 61.677C63.9159 62.0178 63.765 62.4154 63.5907 62.8738C63.4183 63.3301 63.2362 63.81 63.0481 64.3154C62.8582 64.8207 62.6799 65.2967 62.5134 65.7472C62.3469 66.1977 62.2 66.5914 62.0727 66.9322C61.9454 67.273 61.8651 67.5042 61.8298 67.6275C61.7143 67.9821 61.5791 68.3151 61.4244 68.6304C61.2696 68.9438 61.0914 69.22 60.8896 69.4589C60.6879 69.6979 60.4587 69.8879 60.1982 70.0309C59.9397 70.1739 59.6478 70.2444 59.3266 70.2444C58.9114 70.2444 58.5705 70.1445 58.2983 69.9486C58.028 69.7508 57.8928 69.3728 57.8928 68.8145C57.8928 68.5423 57.9281 68.2622 57.9966 67.9762C58.0652 67.6902 58.1533 67.4062 58.2552 67.1281C58.359 66.848 58.4648 66.5757 58.5745 66.3113C58.6841 66.0449 58.784 65.7903 58.8761 65.5435C59.497 64.1802 60.1316 62.813 60.776 61.4439C61.4205 60.0728 62.0394 58.7174 62.6309 57.3737C63.2244 56.032 63.7729 54.7118 64.2802 53.4171C64.7855 52.1224 65.2066 50.8806 65.5396 49.6956C65.6317 49.4507 65.759 49.1021 65.9196 48.6516C66.0802 48.2011 66.2643 47.7584 66.472 47.3216C66.6796 46.8848 66.9127 46.5068 67.1712 46.1875C67.4298 45.8663 67.7099 45.7076 68.0076 45.7076C68.4679 45.7076 68.8009 45.8134 69.0085 46.0249C69.2161 46.2365 69.3199 46.5459 69.3199 46.9553C69.3199 47.0376 69.3082 47.1669 69.2847 47.3431C69.2612 47.5194 69.2318 47.7075 69.1985 47.9053C69.1632 48.1031 69.126 48.2912 69.0869 48.4674C69.0457 48.6437 69.0085 48.773 68.9752 48.8553C69.4002 48.3911 69.8605 47.9327 70.3561 47.4744C70.8516 47.018 71.3629 46.6047 71.8937 46.2365C72.4225 45.8682 72.9631 45.5685 73.5155 45.3355C74.0678 45.1043 74.6202 44.9888 75.1726 44.9888C75.5526 44.9888 75.9286 45.0436 76.3027 45.1533C76.6769 45.263 77.0098 45.4216 77.3036 45.6332C77.5974 45.8447 77.8364 46.1111 78.0205 46.4304C78.2046 46.7516 78.2967 47.1218 78.2967 47.5449C78.2967 48.1051 78.1557 48.7005 77.8736 49.3352C77.5916 49.9698 77.237 50.6064 76.812 51.2469C76.385 51.8873 75.9247 52.5122 75.4311 53.1174C74.9356 53.7246 74.4733 54.277 74.0404 54.7745C73.6095 55.272 73.2471 55.6951 72.9533 56.0418C72.6595 56.3904 72.5068 56.6255 72.495 56.7469C72.495 56.9114 72.5479 57.0427 72.6497 57.1465C72.7516 57.2503 72.9259 57.2993 73.1688 57.2993C73.3647 57.2993 73.6526 57.1896 74.0326 56.9722C74.4126 56.7547 74.9454 56.3767 75.6289 55.8381C76.3125 55.2994 77.1822 54.5767 78.236 53.6698C79.2898 52.7649 80.5884 51.6229 82.1299 50.246Z" fill="white" stroke="white" stroke-width="0.264085" stroke-miterlimit="10"/>
</g>
</svg>
