<svg width="101" height="101" viewBox="0 0 101 101" fill="none" xmlns="http://www.w3.org/2000/svg">
<path d="M96.0315 0.296875H47.8767C47.8767 6.06211 50.1669 11.5912 54.2436 15.6679C58.3202 19.7445 63.8493 22.0347 69.6145 22.0347H78.4852V30.5995C78.493 42.5941 88.2144 52.3159 100.209 52.3237V4.47431C100.209 2.16783 98.3391 0.296875 96.0315 0.296875Z" fill="#2684FF"/>
<path d="M72.2045 24.2905H24.05C24.0575 36.2851 33.7789 46.0068 45.7738 46.0146H54.6445V54.6068C54.6598 66.6014 64.3878 76.3164 76.3824 76.3164V28.4687C76.3824 26.1615 74.5118 24.2909 72.2045 24.2909V24.2905Z" fill="url(#paint0_linear_142_102)"/>
<path d="M48.3638 48.271H0.208984C0.208984 60.2765 9.9417 70.0089 21.9468 70.0089H30.8453V78.5733C30.8531 90.5569 40.5577 100.274 52.5416 100.297V52.4488C52.5416 50.1416 50.6711 48.271 48.3638 48.271Z" fill="url(#paint1_linear_142_102)"/>
<defs>
<linearGradient id="paint0_linear_142_102" x1="75.352" y1="24.3743" x2="54.9922" y2="45.6189" gradientUnits="userSpaceOnUse">
<stop offset="0.18" stop-color="#0052CC"/>
<stop offset="1" stop-color="#2684FF"/>
</linearGradient>
<linearGradient id="paint1_linear_142_102" x1="52.8896" y1="48.5077" x2="29.3384" y2="71.679" gradientUnits="userSpaceOnUse">
<stop offset="0.18" stop-color="#0052CC"/>
<stop offset="1" stop-color="#2684FF"/>
</linearGradient>
</defs>
</svg>
