<svg width="101" height="100" viewBox="0 0 101 100" fill="none" xmlns="http://www.w3.org/2000/svg">
<g id="Group 49">
<path id="Vector" d="M50.1242 74.4375C72.248 104.597 93.8992 66.0195 93.8672 42.8203C93.8301 15.3922 66.0293 0.0625 50.1063 0.0625C24.5484 0.0621094 0.208984 21.1844 0.208984 50.0844C0.208984 82.207 28.1094 100 50.1063 100C45.1285 99.2832 28.5398 95.7289 28.3172 57.5207C28.1668 31.6793 36.7469 21.3547 50.0703 25.8965C50.3687 26.007 64.7664 31.6867 64.7664 50.2402C64.7664 68.7152 50.1242 74.4371 50.1242 74.4371V74.4375Z" fill="url(#paint0_linear_13_5727)"/>
<path id="Vector_2" d="M50.0985 25.8752C35.4797 20.8365 17.5715 32.8854 17.5715 57.0182C17.5715 96.4232 46.7719 99.9998 50.3118 99.9998C75.8696 99.9998 100.209 78.8771 100.209 49.9775C100.209 17.8549 72.3087 0.0619558 50.3118 0.0619558C56.4044 -0.781794 83.1497 6.6557 83.1497 43.2096C83.1497 67.0478 63.1794 80.0252 50.1903 74.4807C49.8919 74.3701 35.4938 68.6904 35.4938 50.1369C35.4938 31.6615 50.0985 25.8752 50.0985 25.8752Z" fill="url(#paint1_linear_13_5727)"/>
</g>
<defs>
<linearGradient id="paint0_linear_13_5727" x1="14.9986" y1="14.7903" x2="89.6978" y2="80.3966" gradientUnits="userSpaceOnUse">
<stop/>
<stop offset="1" stop-color="white"/>
</linearGradient>
<linearGradient id="paint1_linear_13_5727" x1="85.4467" y1="85.2368" x2="4.59562" y2="30.0243" gradientUnits="userSpaceOnUse">
<stop/>
<stop offset="1" stop-color="white"/>
</linearGradient>
</defs>
</svg>
