<svg width="101" height="101" viewBox="0 0 101 101" fill="none" xmlns="http://www.w3.org/2000/svg">
<g id="Group 27">
<path id="Vector" d="M90.334 20.331C84.2894 12.5037 76.0593 6.64473 66.6847 3.4951C57.31 0.34546 47.2119 0.0466433 37.6674 2.63644C28.1229 5.22624 19.5608 10.5883 13.064 18.0445C6.56711 25.5007 2.42732 34.7161 1.16818 44.5252C-0.0909635 54.3344 1.5871 64.2966 5.99013 73.1519C10.3932 82.0073 17.3234 89.3581 25.9044 94.2745C34.4853 99.191 44.3315 101.452 54.1977 100.773C64.0639 100.093 73.507 96.5023 81.3325 90.4555C103.176 73.5743 107.207 42.1824 90.3324 20.331H90.334Z" fill="#FF6C37"/>
<path id="Vector_2" d="M67.6247 32.7498L46.5422 53.9996L40.5845 47.8747C61.3342 27.1248 63.417 28.9998 67.6263 32.7498H67.6247Z" fill="white"/>
<path id="Vector_3" d="M46.5421 54.5806C46.3553 54.576 46.1771 54.5019 46.0421 54.3728L40.0421 48.3728C39.907 48.233 39.8315 48.0462 39.8315 47.8517C39.8315 47.6573 39.907 47.4705 40.0421 47.3307C60.4998 26.873 63.2919 27.8308 68.1247 32.2058C68.2056 32.2705 68.2703 32.3533 68.3137 32.4474C68.3571 32.5415 68.378 32.6444 68.3747 32.748C68.4059 32.9511 68.3278 33.1589 68.1669 33.2902L47.0843 54.3743C46.9364 54.5099 46.7426 54.5842 46.5421 54.5822V54.5806ZM41.6249 47.8728L46.5421 52.79L66.5419 32.7902C65.8514 31.9248 64.866 31.3443 63.7744 31.1598C62.6827 30.9753 61.5613 31.1998 60.6248 31.7902C56.9998 33.4152 51.167 38.3729 41.6249 47.8728Z" fill="#FF6C37"/>
<path id="Vector_4" d="M52.5842 59.8745L46.8342 53.9996L67.917 33.1655C73.5841 38.7076 65.167 47.9575 52.5842 59.873V59.8745Z" fill="white"/>
<path id="Vector_5" d="M52.5843 60.6243C52.3999 60.6096 52.2249 60.5369 52.0844 60.4165L46.2094 54.6665C46.1213 54.4529 46.1213 54.213 46.2094 53.9994C46.1469 53.824 46.1469 53.6325 46.2094 53.4572L67.2921 32.3746C67.4387 32.2369 67.6323 32.1602 67.8334 32.1602C68.0346 32.1602 68.2282 32.2369 68.3749 32.3746C69.0576 33.003 69.597 33.7711 69.9564 34.6266C70.3158 35.4821 70.4868 36.4049 70.4576 37.3324C70.4576 42.9573 64.0405 50.04 53.125 60.3743C52.9791 60.5186 52.7872 60.6071 52.5828 60.6243H52.5843ZM47.9172 53.9994L52.625 58.7056C60.9577 50.8306 68.917 42.7057 68.9577 37.2058C69.003 36.0398 68.6175 34.898 67.8749 33.998L47.9172 53.9994Z" fill="#FF6C37"/>
<path id="Vector_6" d="M40.7502 47.9998L44.9173 52.1669C44.9439 52.1904 44.9652 52.2193 44.9798 52.2516C44.9944 52.2839 45.0019 52.319 45.0019 52.3544C45.0019 52.3899 44.9944 52.425 44.9798 52.4573C44.9652 52.4896 44.9439 52.5185 44.9173 52.5419L36.1252 54.4169C35.9477 54.4552 35.7626 54.4345 35.598 54.3578C35.4334 54.2812 35.2983 54.1529 35.2134 53.9924C35.1285 53.8319 35.0983 53.6481 35.1275 53.4689C35.1568 53.2897 35.2437 53.125 35.3752 52.9997L40.5002 47.917C40.5002 47.917 40.6673 47.917 40.7502 47.9998Z" fill="white"/>
<path id="Vector_7" d="M35.9172 55.2496C35.6394 55.2462 35.3672 55.1715 35.1264 55.0328C34.8857 54.8941 34.6846 54.696 34.5422 54.4575C34.382 54.1553 34.3239 53.8094 34.3766 53.4714C34.4292 53.1334 34.5898 52.8216 34.8344 52.5825L39.9172 47.4575C40.1005 47.2937 40.3377 47.2031 40.5836 47.2031C40.8294 47.2031 41.0666 47.2937 41.25 47.4575L45.4171 51.6247C45.664 51.8591 45.7608 52.2137 45.6671 52.5419C45.5733 52.87 45.2983 53.1309 44.9593 53.209L36.1672 55.084L35.9172 55.2496ZM40.5843 48.9169L35.8766 53.6247L43.6687 51.9575L40.5843 48.9169Z" fill="#FF6C37"/>
<path id="Vector_8" d="M78.8341 21.0406C75.8185 18.1313 71.0809 18.0094 67.9184 20.7547C64.7559 23.5 64.2152 28.2124 66.6778 31.603C69.1403 34.9936 73.7825 35.9436 77.3763 33.7905L71.709 28.1234L78.8341 21.0406Z" fill="white"/>
<path id="Vector_9" d="M73.2092 35.7058C71.4767 35.6836 69.7889 35.1521 68.3564 34.1774C66.9238 33.2027 65.8097 31.828 65.153 30.2246C64.4967 28.6224 64.3245 26.863 64.6578 25.164C64.991 23.4649 65.8151 21.9009 67.028 20.6653C68.6961 19.0278 70.9404 18.1104 73.278 18.1104C75.6156 18.1104 77.8598 19.0278 79.528 20.6653C79.6873 20.7997 79.778 20.9981 79.778 21.2075C79.7776 21.3105 79.7551 21.4122 79.7119 21.5058C79.6688 21.5993 79.6061 21.6825 79.528 21.7497L72.778 28.1246L77.903 33.1668C77.986 33.2461 78.0484 33.3445 78.0846 33.4535C78.1208 33.5624 78.1298 33.6786 78.1108 33.7918C78.0984 33.901 78.0622 34.0062 78.0047 34.0999C77.9472 34.1936 77.8698 34.2735 77.778 34.334C76.4011 35.1946 74.8184 35.6694 73.1952 35.709L73.2092 35.7058ZM73.2092 19.5388C70.2405 19.5544 67.5842 21.3403 66.4702 24.07C65.3561 26.7996 65.9623 29.9418 68.0436 32.0387C69.0788 33.0799 70.4043 33.7842 71.8466 34.0594C73.2888 34.3346 74.7806 34.1678 76.1264 33.5808L71.2092 28.6637C71.131 28.6012 71.0679 28.5219 71.0246 28.4317C70.9812 28.3415 70.9587 28.2427 70.9587 28.1426C70.9587 28.0425 70.9812 27.9437 71.0246 27.8535C71.0679 27.7633 71.131 27.684 71.2092 27.6215L77.7092 21.0794C76.4171 20.0891 74.8371 19.5476 73.2092 19.5372V19.5388Z" fill="#FF6C37"/>
<path id="Vector_10" d="M78.9591 21.1655L71.8342 28.2483L77.5013 33.9154C78.0717 33.5879 78.6027 33.1963 79.0841 32.7482C80.5694 31.1783 81.3866 29.0927 81.3633 26.9316C81.3399 24.7705 80.4779 22.703 78.9591 21.1655Z" fill="white"/>
<path id="Vector_11" d="M77.3747 34.5404C77.2811 34.5455 77.1876 34.5294 77.101 34.4935C77.0145 34.4575 76.9371 34.4025 76.8747 34.3326L71.2076 28.6654C71.1294 28.6029 71.0663 28.5237 71.0229 28.4335C70.9795 28.3432 70.957 28.2444 70.957 28.1444C70.957 28.0443 70.9795 27.9455 71.0229 27.8553C71.0663 27.7651 71.1294 27.6858 71.2076 27.6233L78.2903 20.6655C78.3587 20.5624 78.4516 20.4778 78.5607 20.4192C78.6697 20.3607 78.7915 20.3301 78.9153 20.3301C79.0391 20.3301 79.1609 20.3607 79.27 20.4192C79.379 20.4778 79.4719 20.5624 79.5403 20.6655C80.3718 21.4802 81.0324 22.4526 81.4833 23.5258C81.9343 24.599 82.1666 25.7514 82.1666 26.9155C82.1666 28.0795 81.9343 29.2319 81.4833 30.3051C81.0324 31.3783 80.3718 32.3507 79.5403 33.1654C79.0498 33.6857 78.4886 34.1343 77.8731 34.4982C77.7182 34.5763 77.539 34.5914 77.3731 34.5404H77.3747ZM72.7919 28.1248L77.4997 32.8326C77.8235 32.6056 78.1301 32.3549 78.4169 32.0826C79.8008 30.7024 80.5803 28.8294 80.584 26.8748C80.5872 25.1257 79.9497 23.436 78.7919 22.1249L72.7919 28.1248Z" fill="#FF6C37"/>
<path id="Vector_12" d="M68.4997 33.6248C67.9353 33.0948 67.1903 32.7998 66.4161 32.7998C65.6419 32.7998 64.8969 33.0948 64.3325 33.6248L45.4592 52.4559L48.5842 55.6231L68.5419 38.1232C68.8462 37.8315 69.0877 37.4806 69.2513 37.092C69.4149 36.7035 69.4973 36.2856 69.4933 35.8641C69.4894 35.4425 69.3992 35.0262 69.2283 34.6408C69.0574 34.2555 68.8095 33.9091 68.4997 33.6232V33.6248Z" fill="white"/>
<path id="Vector_13" d="M48.4171 56.3745C48.2303 56.37 48.052 56.2958 47.9171 56.1667L44.7499 52.9996C44.6148 52.8597 44.5393 52.6729 44.5393 52.4785C44.5393 52.2841 44.6148 52.0972 44.7499 51.9574L63.6247 33.1654C64.1684 32.6224 64.8626 32.2552 65.6175 32.1116C66.3723 31.9679 67.1529 32.0543 67.858 32.3596C68.5631 32.665 69.1602 33.1751 69.5719 33.8239C69.9836 34.4727 70.1909 35.2302 70.1669 35.9982C70.1452 36.5194 70.0198 37.0312 69.7979 37.5034C69.576 37.9756 69.2622 38.3988 68.8747 38.7481L48.917 56.248C48.7719 56.3507 48.5935 56.3953 48.4171 56.373V56.3745ZM46.2093 52.4558L48.2921 54.5808L67.8747 37.5388C68.3591 37.1169 68.6481 36.5138 68.6669 35.8716C68.6856 35.2294 68.4325 34.6013 67.9591 34.1638C67.5219 33.7284 66.93 33.484 66.313 33.484C65.696 33.484 65.1041 33.7284 64.6669 34.1638L46.2093 52.4558Z" fill="#FF6C37"/>
<path id="Vector_14" d="M30.8345 73.9148C30.7812 73.9873 30.7525 74.0749 30.7525 74.1648C30.7525 74.2548 30.7812 74.3424 30.8345 74.4148L31.6673 78.0398C31.7007 78.2531 31.6691 78.4715 31.5766 78.6666C31.484 78.8617 31.3349 79.0244 31.1486 79.1335C30.963 79.2421 30.7477 79.289 30.5337 79.2673C30.3197 79.2457 30.1181 79.1567 29.958 79.0132L24.2502 73.5133L42.0422 55.5806H48.2093L52.3765 59.7477C45.8761 65.4311 38.6281 70.1978 30.8345 73.9148Z" fill="white"/>
<path id="Vector_15" d="M30.4595 80.04C29.9876 80.0307 29.522 79.8369 29.2095 79.4978L23.7518 74.0401C23.6736 73.9776 23.6105 73.8983 23.5671 73.8081C23.5237 73.7179 23.5012 73.6191 23.5012 73.519C23.5012 73.4189 23.5237 73.3201 23.5671 73.2299C23.6105 73.1397 23.6736 73.0604 23.7518 72.9979L41.6672 55.0403C41.7675 54.9336 41.8986 54.861 42.0422 54.8324H48.25C48.4117 54.7753 48.5882 54.7753 48.75 54.8324L52.9171 58.9996C52.9964 59.0727 53.0567 59.1639 53.0929 59.2654C53.1291 59.3669 53.1401 59.4757 53.1249 59.5824C53.1279 59.6859 53.1068 59.7887 53.0635 59.8828C53.0201 59.9768 52.9556 60.0596 52.8749 60.1246L52.5421 60.4168C46.0155 65.8578 38.835 70.4627 31.1673 74.1245L31.9595 77.4994C32.0207 77.7598 32.0231 78.0305 31.9664 78.2919C31.9096 78.5533 31.7953 78.7987 31.6316 79.0102C31.468 79.2218 31.2592 79.3941 31.0205 79.5147C30.7817 79.6353 30.5191 79.7011 30.2517 79.7072L30.4595 80.04ZM25.3767 73.4979L30.2923 78.4557C30.3381 78.4965 30.3974 78.5191 30.4587 78.5191C30.5201 78.5191 30.5793 78.4965 30.6251 78.4557C30.6558 78.4131 30.6723 78.362 30.6723 78.3096C30.6723 78.2571 30.6558 78.206 30.6251 78.1635L29.7923 74.5385C29.7267 74.2784 29.7531 74.0035 29.867 73.7606C29.9809 73.5177 30.1753 73.3216 30.4173 73.2057C37.8789 69.5928 44.8742 65.0875 51.2499 59.7887L47.8328 56.3715H42.25L25.3767 73.4979Z" fill="#FF6C37"/>
<path id="Vector_16" d="M19.9595 77.7897L24.1266 73.6226L30.5438 80.0397L20.3361 79.3319C20.1608 79.3181 19.9944 79.2494 19.8605 79.1354C19.7266 79.0215 19.6321 78.8682 19.5906 78.6974C19.549 78.5266 19.5624 78.347 19.629 78.1843C19.6955 78.0215 19.8117 77.884 19.9611 77.7912L19.9595 77.7897Z" fill="white"/>
<path id="Vector_17" d="M30.6673 80.6649L20.5002 79.957C19.8971 79.9008 19.3784 79.4883 19.1659 78.9367C18.9534 78.3852 19.083 77.7305 19.5002 77.2899L23.6674 73.1227C23.8072 72.9876 23.994 72.9121 24.1885 72.9121C24.3829 72.9121 24.5697 72.9876 24.7095 73.1227L31.0845 79.4977C31.1727 79.6186 31.2203 79.7644 31.2203 79.9141C31.2203 80.0638 31.1727 80.2096 31.0845 80.3305C30.9881 80.4863 30.8406 80.6039 30.6673 80.6633V80.6649ZM20.5002 78.3321L28.8329 78.8742L24.2502 74.5821L20.5002 78.3321Z" fill="#FF6C37"/>
<path id="Vector_18" d="M48.792 56.084L40.375 57.3762L45.2499 52.5435L48.792 56.084Z" fill="white"/>
<path id="Vector_19" d="M40.375 58.1652C40.2351 58.1688 40.0973 58.1312 39.9786 58.057C39.86 57.9828 39.7658 57.8753 39.7079 57.748C39.6191 57.6273 39.5713 57.4814 39.5713 57.3316C39.5713 57.1818 39.6191 57.0359 39.7079 56.9152L44.5406 52.0401C44.6872 51.9024 44.8808 51.8257 45.082 51.8257C45.2831 51.8257 45.4767 51.9024 45.6234 52.0401L49.167 55.5808C49.2378 55.6931 49.2754 55.8231 49.2754 55.9558C49.2754 56.0885 49.2378 56.2185 49.167 56.3308C49.1323 56.4676 49.0588 56.5915 48.9555 56.6877C48.8521 56.7839 48.7232 56.8482 48.5842 56.873L40.2516 58.1652H40.375ZM45.2499 53.623L42.5422 56.3308L47.2093 55.623L45.2499 53.623Z" fill="#FF6C37"/>
<path id="Vector_20" d="M48.7921 56.0808L42.9172 56.8308C42.76 56.8665 42.5955 56.8505 42.448 56.7854C42.3006 56.7202 42.178 56.6092 42.0986 56.4689C42.0191 56.3287 41.987 56.1665 42.007 56.0065C42.027 55.8465 42.0979 55.6972 42.2094 55.5808L45.2515 52.5386L48.7921 56.0808Z" fill="white"/>
<path id="Vector_21" d="M42.7499 57.6244C42.4776 57.6218 42.2108 57.5472 41.9767 57.408C41.7426 57.2689 41.5495 57.0702 41.4171 56.8323C41.258 56.547 41.1963 56.2177 41.2414 55.8942C41.2866 55.5708 41.436 55.2709 41.6671 55.0401L44.7093 51.9979C44.8559 51.8602 45.0495 51.7835 45.2507 51.7835C45.4519 51.7835 45.6455 51.8602 45.7921 51.9979L49.3342 55.5401C49.4396 55.6399 49.5137 55.7681 49.5476 55.9092C49.5815 56.0503 49.5738 56.1982 49.5253 56.335C49.4769 56.4718 49.3898 56.5915 49.2746 56.6798C49.1594 56.7681 49.0211 56.821 48.8764 56.8323L43.0437 57.5823L42.7499 57.6244ZM42.7499 56.0823L47.1671 55.5401L45.2093 53.5823L42.7093 56.0823H42.7499ZM78.9996 25.9575C78.9211 25.826 78.7971 25.7279 78.6511 25.6818C78.505 25.6357 78.3472 25.6449 78.2074 25.7075C78.1385 25.7424 78.0772 25.7908 78.0273 25.8499C77.9774 25.9089 77.9398 25.9774 77.9168 26.0512C77.8704 26.2002 77.885 26.3614 77.9574 26.4996C78.2496 27.1137 78.1684 27.8403 77.7496 28.3746C77.6976 28.4261 77.6569 28.4878 77.63 28.5559C77.6031 28.6239 77.5906 28.6968 77.5934 28.7699C77.5949 28.9165 77.6505 29.0573 77.7496 29.1653C77.8565 29.2075 77.9755 29.2075 78.0824 29.1653C78.1794 29.1896 78.2813 29.187 78.3769 29.1575C78.4725 29.128 78.5582 29.0729 78.6246 28.9981C78.9677 28.578 79.185 28.0694 79.2513 27.5311C79.3177 26.9928 79.2304 26.4467 78.9996 25.9559V25.9575Z" fill="#FF6C37"/>
</g>
</svg>
