<svg width="98" height="101" viewBox="0 0 98 101" fill="none" xmlns="http://www.w3.org/2000/svg">
<g id="Group 88">
<path id="Vector" d="M10.5069 59.9241C15.8796 59.9241 20.235 55.5687 20.235 50.1959C20.235 44.8232 15.8796 40.4678 10.5069 40.4678C5.13423 40.4678 0.778809 44.8232 0.778809 50.1959C0.778809 55.5687 5.13423 59.9241 10.5069 59.9241Z" fill="#FF6309"/>
<path id="Vector_2" d="M80.2634 100.189C85.6364 100.189 89.9921 95.8329 89.9921 90.4598C89.9921 85.0867 85.6364 80.731 80.2634 80.731C74.8904 80.731 70.5347 85.0867 70.5347 90.4598C70.5347 95.8329 74.8904 100.189 80.2634 100.189Z" fill="#FFB515"/>
<path id="Vector_3" d="M80.2554 19.6447C85.6281 19.6447 89.9834 15.2893 89.9834 9.91659C89.9834 4.5439 85.6281 0.188477 80.2554 0.188477C74.8827 0.188477 70.5273 4.5439 70.5273 9.91659C70.5273 15.2893 74.8827 19.6447 80.2554 19.6447Z" fill="#C90016"/>
<path id="Vector_4" d="M57.0097 26.124C69.1233 26.124 79.1734 35.1186 80.8379 46.7796H97.5044C96.7464 37.6167 92.9488 29.076 86.5969 22.341C82.529 24.4124 77.5268 24.4521 73.278 21.9997C69.0259 19.544 66.5589 15.1898 66.3223 10.6263C63.2687 9.91516 60.1437 9.55676 57.0084 9.55811C50.9267 9.55811 45.0499 10.8854 39.7051 13.4027L48.0509 27.8554C50.8986 26.7093 53.9401 26.1215 57.0097 26.124Z" fill="#FF6309"/>
<path id="Vector_5" d="M32.9389 50.1961C32.9389 42.5268 36.5436 35.6851 42.1468 31.274L33.8043 16.8232C31.8281 18.2042 29.9769 19.7558 28.2719 21.4604C23.444 26.2883 19.9817 32.1175 18.0767 38.4795C21.9153 40.9657 24.4572 45.2821 24.4572 50.1961C24.4572 55.1089 21.9153 59.426 18.0767 61.9115C19.9817 68.2735 23.444 74.102 28.2719 78.9313C29.9756 80.635 31.8252 82.1862 33.7996 83.5671L42.1435 69.1143C36.5416 64.7039 32.9389 57.8628 32.9389 50.1961Z" fill="#FFB515"/>
<path id="Vector_6" d="M80.839 53.6016C79.1791 65.2665 69.1269 74.267 57.01 74.267C53.8439 74.267 50.8183 73.6507 48.0478 72.5342L39.7026 86.9874C45.0461 89.5061 50.9263 90.834 57.0093 90.834C60.1873 90.834 63.3103 90.4676 66.3299 89.7645C66.5625 85.195 69.0295 80.833 73.2849 78.3759C77.5351 75.9222 82.5393 75.9606 86.6072 78.0367C92.9532 71.3004 96.7481 62.7611 97.5029 53.6016H80.839Z" fill="#C90016"/>
</g>
</svg>
