<svg width="101" height="101" viewBox="0 0 101 101" fill="none" xmlns="http://www.w3.org/2000/svg">
<g id="Group 90">
<path id="Vector" d="M7.31691 50.4843C7.31691 67.4632 17.1836 82.1347 31.4911 89.0885L11.0305 33.028C8.57773 38.5205 7.31227 44.469 7.31691 50.4843ZM79.1662 48.3198C79.1662 43.0188 77.2621 39.3476 75.629 36.4902C73.4547 32.957 71.4175 29.9649 71.4175 26.4317C71.4175 22.4888 74.4071 18.8184 78.6194 18.8184C78.8096 18.8184 78.99 18.8421 79.176 18.8527C71.544 11.8614 61.3769 7.59277 50.2101 7.59277C35.2251 7.59277 22.0415 15.2811 14.3719 26.9263C15.3782 26.9565 16.3275 26.9769 17.1322 26.9769C21.6187 26.9769 28.5635 26.4325 28.5635 26.4325C30.8757 26.2962 31.1483 29.6923 28.8394 29.9657C28.8394 29.9657 26.5149 30.2391 23.9293 30.3746L39.5492 76.8353L48.9368 48.683L42.2532 30.3738C39.9434 30.2383 37.7553 29.9649 37.7553 29.9649C35.4439 29.8294 35.7148 26.2954 38.0262 26.4317C38.0262 26.4317 45.1098 26.9761 49.3245 26.9761C53.8102 26.9761 60.7558 26.4317 60.7558 26.4317C63.0697 26.2954 63.3415 29.6915 61.0309 29.9649C61.0309 29.9649 58.7023 30.2383 56.1216 30.3738L71.6224 76.4827L75.8999 62.1858C77.7551 56.253 79.1662 51.9918 79.1662 48.3198Z" fill="#00749A"/>
<path id="Vector_2" d="M50.9625 54.2362L38.093 91.6316C42.0275 92.7911 46.1081 93.3799 50.2099 93.3798C55.2049 93.3798 59.9951 92.5155 64.4538 90.9484C64.3342 90.7612 64.232 90.5634 64.1486 90.3575L50.9625 54.2362ZM87.847 29.9053C88.0315 31.2715 88.1359 32.739 88.1359 34.3159C88.1359 38.6685 87.323 43.5615 84.8745 49.6795L71.7724 87.5605C84.5244 80.1244 93.1015 66.309 93.1015 50.4842C93.113 43.2913 91.3054 36.2122 87.847 29.9053Z" fill="#00749A"/>
<path id="Vector_3" d="M50.2099 0.485352C22.6404 0.485352 0.209473 22.9146 0.209473 50.4841C0.209473 78.0569 22.6396 100.486 50.2099 100.486C77.7787 100.486 100.213 78.0577 100.213 50.4841C100.212 22.9146 77.7787 0.485352 50.2099 0.485352ZM50.2099 98.1935C23.9046 98.1935 2.50211 76.791 2.50211 50.4841C2.50211 24.1797 23.9038 2.7788 50.2099 2.7788C76.5144 2.7788 97.9153 24.1797 97.9153 50.4841C97.9153 76.791 76.5136 98.1935 50.2099 98.1935Z" fill="#00749A"/>
</g>
</svg>
