<svg width="101" height="91" viewBox="0 0 101 91" fill="none" xmlns="http://www.w3.org/2000/svg">
<g id="Group 55">
<path id="Vector" d="M3.34981 0.227319C2.88218 0.221272 2.41888 0.317676 1.99247 0.509762C1.56606 0.701848 1.18688 0.984957 0.881543 1.33921C0.576209 1.69346 0.352131 2.11026 0.225047 2.56034C0.0979635 3.01042 0.0709547 3.48286 0.145918 3.94449L13.747 86.5117C13.9165 87.5221 14.4365 88.4405 15.2158 89.1056C15.9951 89.7707 16.9839 90.1399 18.0084 90.1484H83.2582C84.026 90.1582 84.7719 89.8918 85.3599 89.3978C85.9479 88.9038 86.3389 88.2151 86.4617 87.457L100.063 3.96051C100.138 3.4989 100.111 3.02651 99.9837 2.5765C99.8566 2.12649 99.6324 1.70977 99.3271 1.3556C99.0217 1.00144 98.6425 0.718408 98.2161 0.526393C97.7897 0.334378 97.3265 0.23803 96.8589 0.244115L3.34981 0.227319ZM60.6215 59.9021H39.7954L34.1564 30.4412H65.668L60.6215 59.9021Z" fill="#2684FF"/>
<path id="Vector_2" d="M95.6549 30.3999H65.6097L60.5672 59.8373H39.7579L15.1869 89.0024C15.9657 89.6757 16.9586 90.0501 17.9881 90.0586H83.2019C83.9692 90.0685 84.7146 89.8025 85.3022 89.3089C85.8898 88.8153 86.2806 88.1271 86.4034 87.3696L95.6549 30.3999Z" fill="url(#paint0_linear_13_3515)"/>
</g>
<defs>
<linearGradient id="paint0_linear_13_3515" x1="102.602" y1="38.6436" x2="67.8947" y2="87.9235" gradientUnits="userSpaceOnUse">
<stop offset="0.18" stop-color="#0052CC"/>
<stop offset="1" stop-color="#2684FF"/>
</linearGradient>
</defs>
</svg>
