<svg width="101" height="101" viewBox="0 0 101 101" fill="none" xmlns="http://www.w3.org/2000/svg">
<g id="Group 41">
<path id="Vector" d="M50.4596 0.30581C50.4596 0.30581 79.8287 -1.01614 95.394 28.4997H47.9622C47.9622 28.4997 39.0041 28.205 31.368 39.0732C29.1658 43.6258 26.8168 48.325 29.4595 57.5747C25.6418 51.115 9.19458 22.4795 9.19458 22.4795C9.19458 22.4795 20.7968 1.48009 50.4596 0.30581Z" fill="#C6352E"/>
<path id="Vector_2" d="M93.8652 75.2454C93.8652 75.2454 80.3218 101.338 46.9768 100.055C51.0903 92.935 70.6983 58.9813 70.6983 58.9813C70.6983 58.9813 75.4322 51.3717 69.8424 39.3245C67.0008 35.1401 64.1071 30.7555 54.7739 28.4177C62.2799 28.3431 95.2998 28.4225 95.2998 28.4225C95.2998 28.4225 107.682 48.9708 93.8652 75.2454Z" fill="#F4D911"/>
<path id="Vector_3" d="M7.26302 75.4441C7.26302 75.4441 -8.56106 50.6658 9.22434 22.4316C13.3342 29.5546 32.9316 63.5143 32.9316 63.5143C32.9316 63.5143 37.1535 71.4186 50.3826 72.6023C55.4256 72.2345 60.6709 71.9206 67.3622 65.0077C63.673 71.5441 47.0923 100.102 47.0923 100.102C47.0923 100.102 23.1063 100.549 7.26302 75.4441Z" fill="#81B354"/>
<path id="Vector_4" d="M46.9768 100.297L53.6487 72.4561C53.6487 72.4561 60.9847 71.8837 67.1315 65.1372C63.3156 71.8498 46.9768 100.297 46.9768 100.297Z" fill="#7BAA50"/>
<path id="Vector_5" d="M28.1145 50.6083C28.1145 38.3352 38.0629 28.3857 50.3371 28.3857C62.6103 28.3857 72.5595 38.335 72.5595 50.6083C72.5595 62.8822 62.6107 72.8319 50.3371 72.8319C38.0629 72.8319 28.1145 62.8824 28.1145 50.6083Z" fill="white"/>
<path id="Vector_6" d="M31.8337 50.6084C31.8337 40.3899 40.1175 32.106 50.3372 32.106C60.5548 32.106 68.8395 40.3899 68.8395 50.6084C68.8395 60.8272 60.5548 69.1118 50.3372 69.1118C40.1175 69.1121 31.8337 60.8267 31.8337 50.6084Z" fill="url(#paint0_linear_13_5503)"/>
<path id="Vector_7" d="M95.3001 28.4226L67.8272 36.4775C67.8272 36.4775 63.6844 30.3978 54.7737 28.4178C62.4946 28.3915 95.3001 28.4226 95.3001 28.4226Z" fill="#E7CE12"/>
<path id="Vector_8" d="M28.9254 56.5754C25.0645 49.8891 9.19556 22.4785 9.19556 22.4785L29.547 42.6107C29.547 42.6107 27.4556 46.9128 28.2486 53.0574L28.9254 56.5754Z" fill="#BC332C"/>
</g>
<defs>
<linearGradient id="paint0_linear_13_5503" x1="50.3365" y1="32.3677" x2="50.3365" y2="68.0048" gradientUnits="userSpaceOnUse">
<stop stop-color="#A2C0E6"/>
<stop offset="1" stop-color="#406CB1"/>
</linearGradient>
</defs>
</svg>
