<svg width="84" height="101" viewBox="0 0 84 101" fill="none" xmlns="http://www.w3.org/2000/svg">
<path id="Vector" d="M27.3615 100.649C27.3607 100.648 27.3599 100.648 27.359 100.647C15.475 97.9118 4.95164 90.1776 1.66835 78.0283C-1.6173 65.8697 2.85373 53.6122 10.157 43.8662C13.8086 38.997 18.0795 34.6269 22.522 30.4782C26.6577 26.6156 31.2137 23.0661 34.9599 18.8149C38.8234 14.4293 43.6525 6.58469 39.987 0.655273C46.6421 5.62751 52.0096 13.9365 51.1123 22.4954C50.3955 29.3247 45.2716 36.2779 50.2904 42.7269C53.4123 46.7361 59.732 45.8953 62.0663 42.0235L61.8946 42.2081C62.2945 41.572 62.5872 40.8745 62.7609 40.1434C62.7731 39.5501 62.668 38.8873 62.3468 38.1081L62.9582 38.4418C74.6591 44.5085 84.1049 55.1054 83.8403 68.8748C83.5208 85.6117 67.9275 97.3244 52.8361 100.655C59.9777 97.8419 66.3447 92.2692 67.2119 84.2567C68.012 76.8643 64.0493 70.4906 58.6831 65.7767C53.5815 61.2915 47.4938 58.3998 41.9454 54.5736C38.7468 52.3682 33.8922 47.9407 35.6006 43.4513C33.3781 45.3644 31.6236 48.0408 30.9315 50.8981C29.5489 56.5981 33.0628 61.0377 36.6951 64.9682C40.3689 68.9372 40.0846 75.7497 33.8876 77.1063C31.2355 77.6833 28.4267 76.6202 26.8231 74.4324C25.098 72.0792 25.4777 69.6729 26.1741 67.0421C20.382 71.1422 15.725 77.381 15.7414 84.7294C15.7548 91.4686 21.364 98.0549 27.359 100.647C27.36 100.648 27.361 100.648 27.362 100.648L27.3615 100.649Z" fill="#EE4323"/>
</svg>
