<svg width="101" height="101" viewBox="0 0 101 101" fill="none" xmlns="http://www.w3.org/2000/svg">
<g id="Group 95">
<path id="Vector" fill-rule="evenodd" clip-rule="evenodd" d="M50.0414 100.485V81.1058C70.5543 81.1058 86.4776 60.7633 78.6002 39.1732C77.1535 35.2069 74.8571 31.6048 71.872 28.6193C68.8868 25.6338 65.285 23.337 61.3189 21.8899C39.7288 14.0706 19.3864 29.9358 19.3864 50.4487H0.0629883C0.0629883 17.7556 31.6829 -7.74417 65.9647 2.96364C80.9251 7.66962 92.8806 19.567 97.5284 34.5294C108.238 68.8654 82.7946 100.485 50.0414 100.485Z" fill="#0080FF"/>
<path id="Vector_2" fill-rule="evenodd" clip-rule="evenodd" d="M30.8324 81.1618H50.0976V61.8965H30.8344L30.8324 81.1618ZM15.9863 96.008H30.8304V81.1638H15.9863V96.008ZM3.57544 81.1638H15.9863V68.7509H3.57544V81.1638Z" fill="#0080FF"/>
</g>
</svg>
