<svg width="68" height="100" viewBox="0 0 68 100" fill="none" xmlns="http://www.w3.org/2000/svg">
<path d="M17.1617 100C26.3617 100 33.8284 92.5336 33.8284 83.3336V66.667H17.1617C7.96172 66.667 0.495056 74.1336 0.495056 83.3336C0.495056 92.5336 7.96172 100 17.1617 100Z" fill="#0ACF83"/>
<path d="M0.495056 49.9996C0.495056 40.7997 7.96172 33.333 17.1617 33.333H33.8284V66.6663H17.1617C7.96172 66.6663 0.495056 59.1996 0.495056 49.9996Z" fill="#A259FF"/>
<path d="M0.495056 16.6667C0.495056 7.46666 7.96172 0 17.1617 0H33.8284V33.3333H17.1617C7.96172 33.3333 0.495056 25.8667 0.495056 16.6667Z" fill="#F24E1E"/>
<path d="M33.8284 0H50.4951C59.6951 0 67.1618 7.46666 67.1618 16.6667C67.1618 25.8667 59.6951 33.3333 50.4951 33.3333H33.8284V0Z" fill="#FF7262"/>
<path d="M67.1618 49.9996C67.1618 59.1996 59.6951 66.6663 50.4951 66.6663C41.295 66.6663 33.8284 59.1996 33.8284 49.9996C33.8284 40.7997 41.295 33.333 50.4951 33.333C59.6951 33.333 67.1618 40.7997 67.1618 49.9996Z" fill="#1ABCFE"/>
</svg>
