<svg width="101" height="101" viewBox="0 0 101 101" fill="none" xmlns="http://www.w3.org/2000/svg">
<path id="Vector" d="M98.6663 45.7324L55.0054 2.07383C52.4925 -0.440625 48.4144 -0.440625 45.8983 2.07383L36.8319 11.1402L48.3331 22.6414C51.0058 21.7383 54.0706 22.3441 56.2011 24.4746C58.3417 26.6187 58.9433 29.7098 58.0183 32.391L69.1022 43.4754C71.7839 42.5516 74.878 43.1492 77.0198 45.2945C80.0132 48.2867 80.0132 53.1363 77.0198 56.1305C74.0257 59.125 69.1761 59.125 66.1804 56.1305C63.9288 53.8766 63.3726 50.5699 64.5124 47.7961L54.1757 37.4594L54.1745 64.6613C54.9238 65.0318 55.6082 65.5212 56.2011 66.1105C59.1944 69.1027 59.1944 73.9527 56.2011 76.9492C53.2069 79.9422 48.355 79.9422 45.3651 76.9492C42.3718 73.9527 42.3718 69.1031 45.3651 66.1109C46.0825 65.3932 46.935 64.8249 47.8733 64.4387V36.9832C46.9336 36.5996 46.0806 36.0309 45.3651 35.3109C43.0972 33.0461 42.5519 29.7184 43.714 26.9336L32.3765 15.5949L2.43896 45.5305C-0.0766602 48.0473 -0.0766602 52.1258 2.43896 54.6406L46.1007 98.3C48.6143 100.815 52.6917 100.815 55.2085 98.3L98.6659 54.8434C101.181 52.3277 101.181 48.2469 98.6659 45.7324" fill="#DE4C36"/>
</svg>
