<svg width="101" height="96" viewBox="0 0 101 96" fill="none" xmlns="http://www.w3.org/2000/svg">
<g id="Group 81">
<path id="Vector" d="M6.51416 66.1086C6.61 66.3252 6.71833 66.5252 6.835 66.7252C6.88917 66.8419 6.96417 66.9627 7.03084 67.0711C7.13917 67.2877 7.25584 67.4961 7.36834 67.7044L8.02251 68.8044C8.14335 69.0086 8.26002 69.2086 8.39752 69.4086C8.62669 69.8003 8.89752 70.1836 9.13503 70.5753C9.24336 70.7378 9.34336 70.9003 9.4642 71.0628C9.92253 71.7753 10.3392 72.3669 10.785 72.942C11.1017 73.3711 11.4184 73.792 11.7601 74.2128C11.8726 74.3711 11.9976 74.5295 12.1142 74.6878L13.0351 75.8045C13.1476 75.9336 13.2601 76.0836 13.3809 76.217C13.7892 76.7087 14.2226 77.1837 14.6559 77.667C14.6559 77.6753 14.6684 77.6837 14.6768 77.6962C15.2143 78.3712 15.7934 78.9712 16.4268 79.5045L16.4434 79.5212C16.7768 79.8629 17.1101 80.2004 17.4643 80.5337L17.8851 80.9379C18.3476 81.3712 18.8101 81.8004 19.2976 82.217C19.306 82.217 19.3101 82.2254 19.3185 82.2295L19.556 82.4379C19.981 82.8087 20.4101 83.1754 20.8477 83.517L21.3685 83.9546C21.7227 84.2379 22.0893 84.5046 22.4518 84.7837L23.0185 85.2171C23.406 85.5087 23.8185 85.7921 24.2144 86.0754C24.3602 86.1796 24.506 86.2837 24.656 86.3796L24.7769 86.4754L25.9477 87.2421L26.4477 87.5754C27.0602 87.9671 27.6686 88.3338 28.2769 88.7004C28.4519 88.7879 28.6269 88.8838 28.7894 88.9838C29.2394 89.2421 29.7061 89.5046 30.1602 89.7421C30.4103 89.8838 30.6686 90.0046 30.9269 90.1338C31.2394 90.3088 31.5644 90.4796 31.8978 90.6546C31.9894 90.6838 32.0644 90.7129 32.1394 90.7546L32.1561 90.7379C32.2936 90.8004 32.4228 90.8671 32.5561 90.9338C33.0561 91.1838 33.577 91.4213 34.1186 91.6546C34.2186 91.6963 34.327 91.738 34.4353 91.7963C35.0353 92.0588 35.6353 92.3088 36.2561 92.5505C36.3978 92.5921 36.5478 92.663 36.6937 92.7171C37.2562 92.9296 37.8353 93.1463 38.4103 93.3505L38.6187 93.4255C39.2562 93.6421 39.8854 93.8505 40.5354 94.0463C40.6854 94.088 40.8395 94.1421 40.9979 94.1838C41.6604 94.3838 42.302 94.6213 42.9729 94.7463C85.7775 102.509 98.2151 69.1377 98.2151 69.1377C87.765 82.6795 69.219 86.2504 51.6563 82.2754C51.0063 82.1254 50.3563 81.917 49.698 81.7254C48.7687 81.4624 47.8475 81.172 46.9354 80.8545L47.3313 80.9754L47.0729 80.8754C46.5063 80.6837 45.9604 80.4712 45.4062 80.2587C45.2706 80.2012 45.133 80.1483 44.9937 80.1004L44.9479 80.0879C44.3354 79.842 43.7396 79.592 43.1479 79.3295C43.0187 79.2878 42.9104 79.2295 42.7812 79.1795C42.0804 78.8741 41.3858 78.5546 40.6979 78.2212L41.2729 78.4753C41.1228 78.409 40.9755 78.3367 40.8312 78.2587C40.4395 78.0753 40.0479 77.867 39.6645 77.6712C39.3726 77.5328 39.0849 77.3855 38.802 77.2295L38.8853 77.2712C38.4145 77.0212 37.9437 76.7503 37.4687 76.4962C37.327 76.3962 37.1645 76.3128 37.002 76.2212C36.2959 75.8108 35.5986 75.3857 34.9103 74.9461L35.1728 75.1045C34.9964 74.9955 34.8241 74.8802 34.6561 74.7586L34.6811 74.7753C34.2333 74.5002 33.7942 74.2112 33.3644 73.9086C33.2228 73.817 33.0936 73.717 32.9478 73.617C32.4989 73.3105 32.0571 72.9938 31.6228 72.667L31.7228 72.7378C31.5478 72.5961 31.3603 72.4628 31.1728 72.3253C30.8061 72.0378 30.4353 71.7628 30.0686 71.4628L29.5769 71.0711C29.0529 70.6542 28.5389 70.2249 28.0352 69.7836L28.0311 69.7794L26.5852 68.4669L26.1685 68.0752C25.8269 67.7294 25.4769 67.4002 25.1269 67.0586L24.7227 66.6419C24.2913 66.2147 23.8703 65.777 23.4602 65.3294L23.4352 65.3002L23.3643 65.2419C22.9232 64.7574 22.4884 64.267 22.0602 63.771C21.9477 63.6419 21.8435 63.5044 21.7268 63.3669L20.781 62.221C20.3546 61.6855 19.9379 61.1423 19.531 60.5918L19.3643 60.3585C9.62253 47.125 6.09749 28.8624 13.8934 13.8789L7.01 22.5832C-1.84426 35.2458 -0.748415 51.7126 6.02249 65.1585C6.17666 65.4877 6.3475 65.7961 6.51416 66.1086Z" fill="#1266A9"/>
<path id="Vector_2" d="M36.3354 47.8667L36.2895 47.8L36.252 47.75L36.3354 47.8667Z" fill="black"/>
<path id="Vector_3" d="M40.9937 53.3329L41.3687 53.7079C41.8437 54.1662 42.3312 54.6121 42.8271 55.0579L42.8896 55.1121C43.3896 55.5537 43.9521 56.0162 44.5312 56.4662L44.6187 56.5329C44.7604 56.6287 44.8812 56.7412 45.0187 56.8371C45.6021 57.2871 46.1896 57.7163 46.8021 58.1454L46.8646 58.1829C47.1229 58.3704 47.3979 58.5413 47.6896 58.7246C47.8063 58.7996 47.9396 58.8996 48.0646 58.9746C48.5063 59.2579 48.9396 59.5204 49.3854 59.7913C49.4563 59.8204 49.5188 59.8579 49.5854 59.8871C49.9605 60.1163 50.3688 60.3371 50.7605 60.5371C50.898 60.6205 51.0313 60.683 51.173 60.7621C51.4521 60.8996 51.7271 61.0455 51.9938 61.1871L52.1271 61.2455C52.6896 61.5205 53.2647 61.7788 53.8272 62.033C53.9688 62.0871 54.0897 62.133 54.2105 62.1913C54.673 62.3913 55.1438 62.583 55.6063 62.758C55.8147 62.8288 56.0105 62.9121 56.2063 62.9746C56.6313 63.133 57.0772 63.2788 57.498 63.4246L58.0814 63.6121C58.6897 63.7996 59.3064 64.0455 59.9522 64.1455C93.0067 69.5872 100.657 44.2661 100.657 44.2661C93.7692 54.1287 80.4399 58.8288 66.2356 55.1579C65.5266 54.9791 64.8234 54.7776 64.1273 54.5537L64.3648 54.6204C64.1648 54.5662 63.9898 54.5037 63.7981 54.4454C63.3647 54.2954 62.9189 54.1496 62.4981 53.9954L61.8981 53.7704C61.4314 53.5829 60.9564 53.4079 60.5022 53.2079C60.3606 53.1454 60.2314 53.1037 60.1231 53.0412C59.5397 52.7787 58.9522 52.5204 58.3814 52.2454L57.523 51.7995L57.0272 51.5495C56.6439 51.3495 56.2897 51.1412 55.923 50.9287C55.8295 50.8848 55.739 50.8346 55.6522 50.7787L55.6647 50.7829C55.223 50.5079 54.7647 50.2412 54.3397 49.962C54.198 49.8828 54.0688 49.787 53.9355 49.7037L53.0688 49.1412C52.4688 48.7245 51.8813 48.2787 51.2855 47.8453C51.1521 47.7245 51.023 47.6245 50.8938 47.5162C44.6479 42.6286 39.7229 35.9494 37.3853 28.3868C34.9228 20.5242 35.4645 11.7075 39.7187 4.55322L34.4895 11.92C28.0686 21.0909 28.4311 33.3493 33.4311 43.0494C34.3436 44.8411 35.2686 46.3536 36.2895 47.7953C37.2395 49.1537 38.2895 50.7453 39.5562 51.837C40.0062 52.3495 40.4895 52.837 40.9937 53.3329Z" fill="#1266A9"/>
<path id="Vector_4" d="M57.598 3.94506C53.8105 9.47428 53.448 16.341 56.0563 22.4369C58.8272 28.912 64.4897 33.9954 71.0898 36.4037C71.3607 36.5079 71.6232 36.5954 71.9023 36.6954L72.269 36.8079C72.6523 36.9287 73.0398 37.0704 73.4357 37.1579C91.69 40.6621 96.6318 27.8328 97.961 25.9453C93.6151 32.1537 86.3275 33.6454 77.3857 31.4828C76.6082 31.2932 75.8429 31.0567 75.094 30.7745L75.2315 30.8203C74.2997 30.4978 73.3871 30.1222 72.4982 29.6953L72.6565 29.7661C70.9482 28.9328 69.4815 28.0328 68.119 26.9995C60.1272 20.9577 55.1855 9.45345 60.4022 0.0825195L57.598 3.94506Z" fill="#1266A9"/>
</g>
</svg>
