<svg width="46" height="101" viewBox="0 0 46 101" fill="none" xmlns="http://www.w3.org/2000/svg">
<g id="Group 61">
<path id="Vector" d="M23.0676 1.16406L25.7362 6.17619C26.3361 7.10112 26.9861 7.91981 27.7517 8.68225C29.9961 10.8987 32.0883 13.2644 34.0137 15.763C38.5353 21.7 41.5851 28.2933 43.763 35.424C45.0692 39.7799 45.7785 44.2483 45.8316 48.7668C46.0504 62.2751 41.4194 73.8743 32.0826 83.5142C30.5639 85.0429 28.9231 86.4453 27.1767 87.7076C26.2518 87.7076 25.8143 86.9983 25.4331 86.3452C24.7388 85.1342 24.2768 83.8042 24.0707 82.4236C23.7426 80.7894 23.527 79.1551 23.6332 77.4677V76.7053C23.5582 76.5428 22.7426 1.54841 23.0676 1.16406Z" fill="#599636"/>
<path id="Vector_2" d="M23.0676 0.998615C22.9583 0.779881 22.8489 0.945494 22.7395 1.05174C22.7926 2.14541 22.4114 3.12033 21.8146 4.05151C21.1584 4.97645 20.2897 5.68577 19.4179 6.44821C14.5745 10.6417 10.7623 15.7069 7.70937 21.3721C3.64716 28.9965 1.55356 37.1678 0.959856 45.7703C0.688001 48.8732 1.94103 59.8224 2.91909 62.9815C5.58765 71.3684 10.381 78.396 16.59 84.4956C18.1149 85.9642 19.746 87.3266 21.4334 88.6359C21.924 88.6359 21.9771 88.1984 22.0896 87.8735C22.3047 87.1781 22.4686 86.4679 22.5802 85.7486L23.6738 77.5805L23.0676 0.998615Z" fill="#6CAC48"/>
<path id="Vector_3" d="M25.7362 91.0261C25.8455 89.7762 26.4455 88.7387 27.0986 87.7045C26.4424 87.4326 25.9549 86.892 25.5737 86.2889C25.245 85.7179 24.9728 85.1162 24.7612 84.4922C23.9988 82.2049 23.8363 79.8051 23.6176 77.4678V76.0522C23.3457 76.271 23.2895 78.1208 23.2895 78.3958C23.1305 80.8662 22.8026 83.3228 22.3083 85.7484C22.1458 86.7295 22.0364 87.7076 21.4333 88.5794C21.4333 88.6888 21.4334 88.7981 21.4865 88.9606C22.4677 91.8479 22.7364 94.7883 22.902 97.7849V98.8786C22.902 100.185 22.8489 99.9097 23.9332 100.347C24.3706 100.51 24.8581 100.566 25.2956 100.891C25.6237 100.891 25.6768 100.619 25.6768 100.4L25.5143 98.6036V93.5915C25.4612 92.7166 25.6237 91.8479 25.733 91.0292L25.7362 91.0261Z" fill="#C2BFBF"/>
</g>
</svg>
