<svg width="101" height="100" viewBox="0 0 101 100" fill="none" xmlns="http://www.w3.org/2000/svg">
<g id="Group 25">
<path id="Vector" d="M92.3194 77.1366C86.8785 76.9989 82.6617 77.5513 79.125 79.0699C78.1047 79.4838 76.4722 79.4842 76.3362 80.7961C76.8803 81.3484 76.9484 82.246 77.4245 83.0051C78.2415 84.3856 79.6688 86.2499 80.9612 87.2169C82.3892 88.3213 83.818 89.4256 85.3137 90.3922C87.9665 92.0493 90.9594 93.0156 93.5438 94.6727C95.0406 95.6385 96.5359 96.8822 98.0323 97.9174C98.7805 98.469 99.2563 99.3674 100.209 99.7122V99.5055C99.7325 98.8837 99.5964 97.9865 99.1207 97.296C98.4412 96.6056 97.7603 95.9842 97.08 95.2937C95.1078 92.6017 92.6595 90.2541 90.0071 88.3213C87.8308 86.8022 83.0694 84.7313 82.1855 82.1766C82.1855 82.1766 82.1171 82.1079 82.0495 82.0389C83.5455 81.9008 85.3137 81.3484 86.7425 80.9341C89.0548 80.3123 91.1631 80.4508 93.5438 79.8294C94.6317 79.5532 95.72 79.208 96.808 78.8628V78.2417C95.5844 76.9989 94.7001 75.3422 93.4077 74.1684C89.9391 71.13 86.1299 68.1618 82.1855 65.6766C80.0769 64.2957 77.3561 63.3981 75.1118 62.2247C74.2963 61.81 72.9355 61.6033 72.4598 60.9128C71.235 59.3942 70.5548 57.3923 69.671 55.5971C67.6991 51.7995 65.7942 47.5885 64.0937 43.5847C62.8701 40.8919 62.1219 38.1991 60.6254 35.7142C53.6201 23.9776 46.0026 16.8667 34.3046 9.89345C31.7879 8.44388 28.7954 7.82247 25.5988 7.06336C23.8991 6.99392 22.1982 6.85622 20.4981 6.78678C19.4097 6.30346 18.3214 4.99198 17.3691 4.37057C13.4931 1.88492 3.49454 -3.49947 0.638073 3.61146C-1.19848 8.09865 3.35889 12.5168 4.92258 14.7957C6.0797 16.3834 7.57537 18.1782 8.39162 19.9734C8.86776 21.1463 9.00341 22.39 9.47955 23.6324C10.5683 26.6692 11.5878 30.0529 13.0166 32.8838C13.7648 34.3333 14.5807 35.8519 15.533 37.1638C16.0771 37.9229 17.029 38.2685 17.2335 39.511C16.2816 40.8919 16.2132 42.9633 15.6686 44.689C13.2203 52.4904 14.173 62.1556 17.6412 67.8857C18.7292 69.611 21.3139 73.4093 24.7826 71.959C27.8435 70.7165 27.1633 66.7813 28.0468 63.3294C28.2516 62.5001 28.1156 61.9485 28.5233 61.3961V61.5346C29.4756 63.4671 30.4275 65.3317 31.3118 67.2646C33.4204 70.6471 37.0927 74.1684 40.1532 76.516C41.7861 77.758 43.0781 79.8985 45.1187 80.658V80.4504H44.9823C44.5742 79.829 43.962 79.5532 43.4182 79.0695C42.1942 77.8275 40.8334 76.3085 39.8815 74.9275C37.0255 71.061 34.5083 66.7809 32.264 62.3624C31.1761 60.2228 30.2234 57.8752 29.3396 55.7352C28.931 54.9058 28.931 53.6638 28.2512 53.2499C27.2309 54.7685 25.7349 56.0804 24.9866 57.9442C23.695 60.9128 23.5586 64.5718 23.0825 68.3686C22.8104 68.4384 22.946 68.3686 22.81 68.5075C20.6341 67.9543 19.8859 65.6766 19.0693 63.7433C17.0286 58.8418 16.6885 50.9714 18.4575 45.3104C18.9336 43.8605 20.9742 39.3042 20.158 37.9233C19.7498 36.6114 18.3891 35.8519 17.6412 34.8166C16.7573 33.5048 15.8047 31.8485 15.1929 30.3981C13.5604 26.5319 12.7441 22.2515 10.976 18.3853C10.1598 16.5901 8.73211 14.7267 7.57537 13.0696C6.28337 11.2057 4.85495 9.89345 3.83464 7.68438C3.49493 6.92527 3.0184 5.68244 3.56256 4.85389C3.6986 4.30153 3.97029 4.09478 4.51484 3.95669C5.39911 3.19679 7.91586 4.16343 8.79935 4.57771C11.3161 5.6126 13.4243 6.58004 15.533 8.02961C16.4849 8.72007 17.5052 10.0319 18.7292 10.3772H20.1576C22.3342 10.8601 24.7822 10.5153 26.8228 11.1363C30.4279 12.3097 33.6921 14.0358 36.617 15.9C45.5268 21.6301 52.8715 29.7767 57.837 39.511C58.6532 41.0982 58.9929 42.549 59.7411 44.2053C61.17 47.5885 62.9381 51.0404 64.3658 54.3542C65.7942 57.5986 67.1542 60.9128 69.1948 63.6056C70.2151 65.0548 74.2956 65.8147 76.1321 66.5742C77.4925 67.1952 79.6012 67.748 80.8251 68.5071C83.1374 69.9562 85.4497 71.6141 87.6264 73.2014C88.7147 74.0299 92.1149 75.7561 92.3194 77.1366Z" fill="#00546B"/>
<path id="Vector_2" d="M22.9458 17.1421C21.7898 17.1421 20.974 17.281 20.1577 17.4877V17.6258H20.2938C20.8383 18.7305 21.7898 19.49 22.4696 20.4563C23.0142 21.5606 23.4899 22.6658 24.0345 23.7705C24.1021 23.7011 24.1701 23.6324 24.1701 23.6324C25.1228 22.9415 25.5986 21.8372 25.5986 20.1801C25.1904 19.6972 25.1224 19.2139 24.7823 18.7305C24.3746 18.0397 23.4899 17.6949 22.9458 17.1421Z" fill="#00546B"/>
</g>
</svg>
