<svg width="92" height="101" viewBox="0 0 92 101" fill="none" xmlns="http://www.w3.org/2000/svg">
<g id="Group 76">
<path id="Vector" d="M41.7341 1.36373C44.2136 -0.0555376 47.4432 -0.0619483 49.9206 1.36373C62.3842 8.40631 74.8517 15.4379 87.3132 22.4847C89.657 23.805 91.2248 26.4134 91.2009 29.1141V71.485C91.2184 74.2976 89.4957 76.9684 87.0229 78.2587C74.6003 85.2625 62.184 92.2748 49.7635 99.2785C47.2327 100.726 43.9383 100.614 41.4865 99.0484C37.7622 96.8894 34.0315 94.7411 30.3069 92.5843C29.5458 92.1305 28.6878 91.7694 28.1504 91.0314C28.6255 90.3911 29.4749 90.3113 30.1651 90.0317C31.7197 89.5374 33.1476 88.7439 34.5757 87.9739C34.9369 87.7267 35.3778 87.8214 35.724 88.0426C38.9087 89.8686 42.0653 91.7477 45.2607 93.5562C45.9424 93.9498 46.6326 93.4273 47.2153 93.1025C59.4057 86.2127 71.6111 79.3489 83.7994 72.457C84.251 72.2397 84.5006 71.7603 84.4639 71.2656C84.4725 57.2884 84.4661 43.3086 84.4682 29.3314C84.5199 28.7701 84.195 28.254 83.6875 28.0243C71.308 21.0526 58.9349 14.0702 46.5575 7.09674C46.343 6.94931 46.089 6.8702 45.8287 6.86982C45.5685 6.86944 45.3142 6.9478 45.0994 7.0946C32.722 14.0702 20.351 21.059 7.97356 28.0304C7.46782 28.2604 7.12841 28.768 7.1886 29.3314C7.19074 43.3086 7.1886 57.2884 7.1886 71.2678C7.16714 71.5091 7.22015 71.7513 7.3405 71.9616C7.46085 72.1719 7.64276 72.3403 7.86173 72.4441C11.1647 74.3172 14.4719 76.177 17.777 78.0436C19.639 79.0458 21.9252 79.6413 23.9766 78.8734C25.7869 78.2242 27.0559 76.3768 27.0214 74.4546C27.0385 60.5589 27.0128 46.6611 27.0342 32.7676C26.989 32.1507 27.5741 31.6411 28.1739 31.6991C29.7609 31.6884 31.3501 31.6777 32.9371 31.7034C33.5995 31.6884 34.0554 32.3527 33.9735 32.9741C33.9671 46.9578 33.9906 60.9418 33.9628 74.9255C33.9671 78.6523 32.436 82.7074 28.9888 84.5309C24.742 86.7309 19.493 86.2643 15.2975 84.1548C11.6654 82.342 8.19936 80.2026 4.63177 78.2605C2.15259 76.9773 0.438421 74.2958 0.455873 71.4854V29.1141C0.429874 26.3575 2.05999 23.7017 4.47685 22.4007C16.8973 15.3912 29.3157 8.3764 41.7341 1.36373Z" fill="#8CC84B"/>
<path id="Vector_2" d="M52.5697 30.7143C57.9868 30.3656 63.786 30.5077 68.6607 33.1764C72.4348 35.2214 74.5272 39.5134 74.5938 43.7064C74.4884 44.272 73.8972 44.584 73.3573 44.5451C71.7856 44.543 70.2135 44.5665 68.6418 44.5345C67.9751 44.5601 67.5876 43.9454 67.5039 43.356C67.0523 41.3497 65.9582 39.3628 64.0699 38.3951C61.1711 36.9438 57.8101 37.0168 54.6492 37.047C52.3417 37.1696 49.8604 37.3694 47.9055 38.7263C46.4046 39.7542 45.9488 41.8291 46.4844 43.5002C46.9895 44.7001 48.3745 45.0872 49.5078 45.4441C56.0361 47.1515 62.954 46.9816 69.3577 49.2286C72.0089 50.1446 74.6024 51.9254 75.5099 54.7012C76.6969 58.4216 76.1766 62.8685 73.5297 65.8552C71.3831 68.3131 68.2568 69.6508 65.1387 70.3773C60.9906 71.3022 56.6857 71.3258 52.4731 70.9151C48.512 70.4635 44.3899 69.4228 41.332 66.7239C38.7171 64.4534 37.4399 60.9157 37.5667 57.5013C37.597 56.9247 38.1711 56.5226 38.7235 56.57C40.3062 56.5571 41.889 56.5529 43.4717 56.5721C44.1039 56.5269 44.5726 57.0732 44.605 57.6691C44.8971 59.5805 45.6154 61.5867 47.2822 62.72C50.499 64.7953 54.5353 64.6532 58.2186 64.7113C61.2701 64.5759 64.6956 64.535 67.1858 62.5181C68.4997 61.3677 68.889 59.4431 68.5339 57.7873C68.1492 56.3894 66.6869 55.738 65.4311 55.312C58.9865 53.2734 51.9913 54.0131 45.609 51.7078C43.018 50.7921 40.5124 49.0608 39.517 46.3989C38.128 42.6315 38.7644 37.9716 41.6888 35.0857C44.5402 32.2151 48.6562 31.1096 52.5697 30.7139V30.7143Z" fill="#8CC84B"/>
</g>
</svg>
