<svg width="101" height="52" viewBox="0 0 101 52" fill="none" xmlns="http://www.w3.org/2000/svg">
<g id="Group 63">
<path id="Vector" fill-rule="evenodd" clip-rule="evenodd" d="M50.1045 51.23C77.7188 51.23 100.104 39.8851 100.104 25.8914C100.104 11.8977 77.7188 0.552734 50.1045 0.552734C22.4908 0.552734 0.104492 11.8977 0.104492 25.8914C0.104492 39.8851 22.4908 51.23 50.1045 51.23Z" fill="#6E81B6"/>
<path id="Vector_2" fill-rule="evenodd" clip-rule="evenodd" d="M60.2376 34.081L62.7177 21.3165C63.2776 18.4355 62.8121 16.2868 61.335 14.9288C59.9039 13.615 57.4746 12.9759 53.9086 12.9759H49.6134L50.842 6.65169C50.865 6.53399 50.8617 6.41264 50.8323 6.29637C50.8029 6.1801 50.7481 6.07178 50.6718 5.97919C50.5956 5.88661 50.4998 5.81204 50.3914 5.76085C50.2829 5.70965 50.1645 5.68311 50.0445 5.68311H44.1163C43.727 5.68311 43.3926 5.95941 43.3182 6.34152L40.684 19.8927C40.4445 18.3678 39.8544 17.057 38.91 15.9754C37.1712 13.985 34.4208 12.9759 30.7345 12.9759H19.2445C18.8551 12.9759 18.5208 13.2522 18.4464 13.6337L13.1156 41.0637C13.069 41.3025 13.1313 41.548 13.2861 41.7354C13.4402 41.9234 13.67 42.0317 13.9136 42.0317H19.8884C20.2778 42.0317 20.6121 41.7554 20.6865 41.3726L21.9761 34.7383H26.4236C28.7574 34.7383 30.7188 34.4855 32.2496 33.9873C33.815 33.4782 35.2558 32.6149 36.5254 31.4262C37.5515 30.4836 38.3991 29.428 39.0515 28.2895L37.9868 33.7697C37.9402 34.0085 38.0025 34.2552 38.1573 34.4414C38.3115 34.6294 38.5418 34.7377 38.7849 34.7377H44.7131C45.1024 34.7377 45.4368 34.4613 45.5112 34.0798L48.4369 19.0232H52.5047C54.2381 19.0232 54.746 19.3685 54.8844 19.5166C55.0096 19.652 55.2696 20.1291 54.9775 21.6327L52.6196 33.7691C52.597 33.8867 52.6006 34.0079 52.6302 34.124C52.6599 34.2401 52.7148 34.3483 52.791 34.4407C52.8672 34.5332 52.9629 34.6077 53.0712 34.6589C53.1795 34.7101 53.2978 34.7368 53.4176 34.737H59.4402C59.6286 34.7374 59.8113 34.6721 59.9568 34.5524C60.1024 34.4327 60.2017 34.266 60.2376 34.081ZM32.7533 23.5342C32.3808 25.4478 31.6795 26.8124 30.6674 27.5906C29.6395 28.3832 27.9956 28.7847 25.7809 28.7847H23.1327L25.0475 18.9307H28.4714C30.9866 18.9307 31.9999 19.4682 32.4068 19.9187C32.9709 20.5438 33.0907 21.7948 32.7533 23.5342ZM85.2086 15.9754C83.4704 13.985 80.72 12.9759 77.0337 12.9759H65.5437C65.1537 12.9759 64.82 13.2522 64.7456 13.6337L59.4154 41.0637C59.3682 41.3025 59.4305 41.548 59.5853 41.7354C59.74 41.9228 59.9704 42.0317 60.2122 42.0317H66.1876C66.5776 42.0317 66.9113 41.7554 66.9857 41.3726L68.2753 34.7383H72.7234C75.0578 34.7383 77.0174 34.4855 78.5488 33.9873C80.1148 33.4782 81.5556 32.6149 82.8246 31.4262C83.8839 30.4534 84.7552 29.3596 85.4154 28.1788C86.0756 26.998 86.549 25.6812 86.8253 24.264C87.5043 20.7687 86.9608 17.9803 85.2086 15.9754ZM79.3917 23.5342C79.0186 25.4478 78.3173 26.8124 77.3064 27.5906C76.2779 28.3832 74.634 28.7847 72.4199 28.7847H69.7711L71.6853 18.9307H75.1098C77.625 18.9307 78.6383 19.4682 79.0458 19.9187C79.6087 20.5438 79.729 21.7948 79.3917 23.5342Z" fill="white"/>
<path id="Vector_3" fill-rule="evenodd" clip-rule="evenodd" d="M28.3015 18.1178C30.5712 18.1178 32.0845 18.5368 32.8409 19.3748C33.5967 20.2127 33.7768 21.6517 33.3814 23.6898C32.9679 25.8126 32.1722 27.3278 30.9932 28.2359C29.8142 29.144 28.0197 29.5975 25.611 29.5975H21.976L24.207 18.1178H28.3015ZM13.743 41.2187H19.7178L21.1356 33.9265H26.2537C28.5119 33.9265 30.3699 33.6889 31.8282 33.2143C33.2865 32.7396 34.6124 31.9446 35.8053 30.8279C36.8065 29.9083 37.6167 28.8925 38.237 27.7824C38.8568 26.6724 39.2969 25.448 39.5575 24.1088C40.1899 20.8573 39.7129 18.3245 38.1276 16.5107C36.5429 14.6963 34.0211 13.7894 30.5645 13.7894H19.0745L13.743 41.2187ZM43.9458 6.49658H49.874L48.4568 13.7894H53.7387C57.0604 13.7894 59.3537 14.3686 60.6149 15.5276C61.8761 16.6867 62.254 18.5652 61.7498 21.162L59.2697 33.9265H53.2471L55.6051 21.7896C55.873 20.4086 55.775 19.4673 55.3088 18.9648C54.8427 18.463 53.8505 18.2115 52.3342 18.2115H47.5964L44.5425 33.9265H38.6143L43.9458 6.49658ZM74.94 18.1178C77.2097 18.1178 78.7224 18.5368 79.4794 19.3748C80.2352 20.2127 80.4147 21.6517 80.0193 23.6898C79.607 25.8126 78.8113 27.3278 77.6317 28.2359C76.4533 29.144 74.6582 29.5975 72.2507 29.5975H68.6157L70.8461 18.1178H74.94ZM60.3803 41.2187H66.3557L67.7729 33.9265H72.8909C75.1498 33.9265 77.0077 33.6889 78.4661 33.2143C79.9244 32.7396 81.2503 31.9446 82.4432 30.8279C83.4444 29.9083 84.2546 28.8925 84.8743 27.7824C85.4941 26.6724 85.9348 25.448 86.196 24.1088C86.8278 20.8573 86.3508 18.3245 84.7661 16.5107C83.1802 14.6963 80.659 13.7894 77.2024 13.7894H65.7124L60.3803 41.2187Z" fill="black"/>
</g>
</svg>
