<svg width="101" height="100" viewBox="0 0 101 100" fill="none" xmlns="http://www.w3.org/2000/svg">
<g id="Group 62">
<path id="Vector" d="M50.4681 0.151367C25.0818 0.151367 26.6669 11.1604 26.6669 11.1604L26.6951 22.566H50.9208V25.9903H17.073C17.073 25.9903 0.828369 24.1479 0.828369 49.7625C0.828369 75.3778 15.0071 74.4694 15.0071 74.4694H23.4689V62.5829C23.4689 62.5829 23.0128 48.4041 37.4214 48.4041H61.4489C61.4489 48.4041 74.9483 48.6222 74.9483 35.3574V13.4248C74.9483 13.4248 76.9985 0.151367 50.4681 0.151367ZM37.1101 7.82144C37.6825 7.82092 38.2495 7.9333 38.7785 8.15213C39.3075 8.37097 39.7881 8.69197 40.1929 9.09677C40.5977 9.50156 40.9187 9.98221 41.1376 10.5112C41.3564 11.0402 41.4688 11.6071 41.4683 12.1796C41.4688 12.7521 41.3564 13.319 41.1376 13.848C40.9187 14.377 40.5977 14.8577 40.1929 15.2624C39.7881 15.6672 39.3075 15.9882 38.7785 16.2071C38.2495 16.4259 37.6825 16.5383 37.1101 16.5378C36.5376 16.5383 35.9707 16.4259 35.4417 16.2071C34.9127 15.9882 34.432 15.6672 34.0272 15.2624C33.6224 14.8577 33.3014 14.377 33.0826 13.848C32.8638 13.319 32.7514 12.7521 32.7519 12.1796C32.7514 11.6071 32.8638 11.0402 33.0826 10.5112C33.3014 9.98221 33.6224 9.50156 34.0272 9.09677C34.432 8.69197 34.9127 8.37097 35.4417 8.15213C35.9707 7.9333 36.5376 7.82092 37.1101 7.82144Z" fill="url(#paint0_linear_13_6521)"/>
<path id="Vector_2" d="M51.1891 99.6312C76.5753 99.6312 74.9902 88.6222 74.9902 88.6222L74.9621 77.2169H50.736V73.7926H84.5837C84.5837 73.7926 100.828 75.635 100.828 50.0196C100.828 24.4046 86.6496 25.3131 86.6496 25.3131H78.1878V37.1992C78.1878 37.1992 78.644 51.378 64.2354 51.378H40.2079C40.2079 51.378 26.7085 51.1599 26.7085 64.4251V86.3581C26.7085 86.3581 24.6586 99.6312 51.1887 99.6312H51.1891ZM64.5471 91.9619C63.9746 91.9624 63.4077 91.85 62.8787 91.6312C62.3497 91.4124 61.869 91.0913 61.4642 90.6866C61.0594 90.2818 60.7384 89.8011 60.5196 89.2721C60.3008 88.7431 60.1884 88.1762 60.1889 87.6037C60.1883 87.0312 60.3007 86.4642 60.5195 85.9352C60.7383 85.4061 61.0593 84.9254 61.4641 84.5206C61.8689 84.1158 62.3496 83.7947 62.8786 83.5759C63.4076 83.357 63.9746 83.2446 64.5471 83.2451C65.1195 83.2446 65.6865 83.357 66.2155 83.5758C66.7445 83.7947 67.2251 84.1157 67.6299 84.5205C68.0347 84.9253 68.3557 85.4059 68.5746 85.9349C68.7934 86.4639 68.9058 87.0308 68.9052 87.6033C68.9058 88.1758 68.7934 88.7427 68.5746 89.2717C68.3557 89.8007 68.0347 90.2814 67.6299 90.6862C67.2251 91.091 66.7445 91.412 66.2155 91.6308C65.6865 91.8496 65.1195 91.962 64.5471 91.9615V91.9619Z" fill="url(#paint1_linear_13_6521)"/>
</g>
<defs>
<linearGradient id="paint0_linear_13_6521" x1="10.4383" y1="9.09899" x2="59.9952" y2="58.1615" gradientUnits="userSpaceOnUse">
<stop stop-color="#387EB8"/>
<stop offset="1" stop-color="#366994"/>
</linearGradient>
<linearGradient id="paint1_linear_13_6521" x1="40.8564" y1="40.6038" x2="94.0749" y2="90.9129" gradientUnits="userSpaceOnUse">
<stop stop-color="#FFE052"/>
<stop offset="1" stop-color="#FFC331"/>
</linearGradient>
</defs>
</svg>
