<svg width="101" height="87" viewBox="0 0 101 87" fill="none" xmlns="http://www.w3.org/2000/svg">
<g id="Group 94">
<path id="Vector" d="M96.3955 66.5576C91.0588 69.3392 63.4135 80.706 57.5279 83.7744C51.6424 86.8431 48.3729 86.8134 43.7232 84.5908C39.074 82.3681 9.65449 70.4845 4.35488 67.9513C1.70645 66.6857 0.313477 65.617 0.313477 64.6076V54.4998C0.313477 54.4998 38.6143 46.1619 44.7975 43.9435C50.9803 41.7252 53.1256 41.6451 58.3873 43.5724C63.6498 45.5006 95.1131 51.1771 100.313 53.0818L100.311 63.0466C100.312 64.0459 99.1119 65.142 96.3955 66.5576Z" fill="#912626"/>
<path id="Vector_2" d="M96.3935 56.5098C91.0571 59.2903 63.4126 70.6574 57.5271 73.7254C51.6419 76.7945 48.3724 76.7645 43.7232 74.5418C39.0735 72.3207 9.65519 60.4352 4.35597 57.9035C-0.943252 55.3703 -1.05419 53.627 4.15128 51.5887C9.35675 49.5497 38.6138 38.0712 44.7978 35.8528C50.9806 33.6352 53.1255 33.5544 58.3872 35.4825C63.6493 37.4098 91.129 48.3477 96.3286 50.252C101.53 52.1586 101.73 53.7286 96.3935 56.5098Z" fill="#C6302B"/>
<path id="Vector_3" d="M96.3955 50.2029C91.0588 52.9849 63.4135 64.3513 57.5279 67.4208C51.6424 70.4884 48.3729 70.4587 43.7232 68.2361C39.0736 66.0146 9.65449 54.1298 4.35488 51.5966C1.70645 50.331 0.313477 49.2638 0.313477 48.254V38.145C0.313477 38.145 38.6143 29.8075 44.7975 27.5892C50.9803 25.3708 53.1256 25.2904 58.3873 27.2181C63.6502 29.1458 95.1135 34.8212 100.313 36.7263L100.311 46.6923C100.312 47.6911 99.1119 48.7872 96.3955 50.2029Z" fill="#912626"/>
<path id="Vector_4" d="M96.3935 40.1547C91.0571 42.9359 63.4126 54.3023 57.5271 57.3714C51.6419 60.4394 48.3724 60.4093 43.7232 58.1867C39.0735 55.9656 9.65519 44.0804 4.35597 41.5484C-0.943252 39.016 -1.05419 37.2722 4.15128 35.2332C9.35675 33.1953 38.6142 21.716 44.7978 19.498C50.9806 17.28 53.1255 17.1996 58.3872 19.1273C63.6493 21.0547 91.129 31.9918 96.3286 33.8968C101.53 35.8031 101.73 37.3734 96.3935 40.1547Z" fill="#C6302B"/>
<path id="Vector_5" d="M96.3955 33.2412C91.0588 36.0224 63.4135 47.3896 57.5279 50.4592C51.6424 53.5271 48.3729 53.497 43.7232 51.2744C39.0736 49.0529 9.65449 37.1677 4.35488 34.6357C1.70645 33.3689 0.313477 32.3013 0.313477 31.2927V21.1833C0.313477 21.1833 38.6143 12.8462 44.7975 10.6282C50.9803 8.40948 53.1256 8.32979 58.3873 10.2571C63.6502 12.1849 95.1135 17.8603 100.313 19.7654L100.311 29.731C100.312 30.729 99.1119 31.8251 96.3955 33.2412Z" fill="#912626"/>
<path id="Vector_6" d="M96.3935 23.1933C91.0572 25.9745 63.4127 37.3417 57.5271 40.4097C51.6419 43.4777 48.3724 43.4476 43.7232 41.2261C39.074 39.0034 9.65523 27.1191 4.35641 24.5866C-0.943203 22.0546 -1.05375 20.3105 4.15133 18.2718C9.3568 16.2335 38.6142 4.75576 44.7978 2.537C50.9806 0.318644 53.1255 0.238956 58.3873 2.16669C63.6494 4.09443 91.1291 15.0315 96.3287 16.9366C101.53 18.8413 101.73 20.412 96.3935 23.1933Z" fill="#C6302B"/>
<path id="Vector_7" d="M62.5334 13.3599L53.9358 14.2524L52.0112 18.8837L48.9026 13.7157L38.9748 12.8235L46.3826 10.152L44.16 6.05127L51.0955 8.76377L57.6338 6.62314L55.8666 10.8634L62.5334 13.3599ZM51.4979 35.8278L35.4521 29.1727L58.4444 25.6434L51.4979 35.8278ZM29.2517 15.9341C36.0389 15.9341 41.5408 18.0669 41.5408 20.6973C41.5408 23.3286 36.0389 25.461 29.2517 25.461C22.4646 25.461 16.9626 23.3282 16.9626 20.6973C16.9626 18.0669 22.4646 15.9341 29.2517 15.9341Z" fill="white"/>
<path id="Vector_8" d="M72.6943 14.6259L86.3022 20.0032L72.7061 25.3755L72.6943 14.6255" fill="#621B1C"/>
<path id="Vector_9" d="M57.6396 20.5811L72.6943 14.626L72.7061 25.3756L71.2299 25.953L57.6396 20.5811Z" fill="#9A2928"/>
</g>
</svg>
